<svg width="14" height="14" viewBox="0 0 14 14" fill="none" xmlns="http://www.w3.org/2000/svg">
<path d="M7.64442 6.91153C8.59032 8.13412 9.68293 9.14437 10.6945 10.2305C11.706 11.3167 12.8141 12.3038 13.7175 13.4144C13.5412 13.7593 13.352 13.7297 13.2027 13.6101C12.916 13.371 12.6424 13.1166 12.3829 12.8482C10.9441 11.3794 9.50791 9.90839 8.07426 8.43528C7.7551 8.10839 7.42049 7.7918 7.04471 7.43661C4.55576 9.43523 2.58417 11.8894 0.0141545 14C0.0347455 13.6345 -0.0180184 13.4273 0.0630588 13.3244C0.35277 12.9581 0.666173 12.6111 1.00124 12.2858C2.70172 10.6179 4.40648 8.9539 6.11554 7.29375C6.21335 7.19723 6.29185 7.08142 6.44113 6.89997C6.29205 6.6866 6.12912 6.48325 5.95338 6.29125C4.38332 4.75721 2.80038 3.23474 1.2316 1.69813C0.831364 1.31205 0.459435 0.884807 0.0939441 0.461403C0.0205885 0.376465 0.0270257 0.222035 0 0.110071C0.295996 -0.137021 0.472308 0.0894716 0.620306 0.229748C2.34738 1.87188 4.06802 3.52001 5.78222 5.17416C6.18374 5.56024 6.58656 5.94633 7.03827 6.36973C7.83103 5.59757 8.55815 4.87819 9.28913 4.16651C9.99308 3.48314 10.679 2.77789 11.4126 2.12798C12.1461 1.47808 12.796 0.64672 13.684 0.137092C14.0173 0.523174 13.7278 0.721348 13.5553 0.893798C12.4074 2.05204 11.2388 3.21031 10.0806 4.36084C9.45 4.98629 8.81167 5.60271 8.18622 6.23331C8.0112 6.42764 7.8542 6.65414 7.64442 6.91153Z" fill="black"/>
</svg>
