<svg width="48" height="48" viewBox="0 0 48 48" fill="none" xmlns="http://www.w3.org/2000/svg">
<path d="M39.5 25.5C39.5 35.4411 31.4411 43.5 21.5 43.5C11.5589 43.5 3.5 35.4411 3.5 25.5C3.5 15.5589 11.5589 7.5 21.5 7.5C31.4411 7.5 39.5 15.5589 39.5 25.5Z" fill="#D9EBF7" stroke="#3C3C3C" stroke-miterlimit="1.5" stroke-linecap="square"/>
<path d="M18.7863 26.2499L19.1399 25.8963L18.7863 26.2499ZM20.8718 43.7324C21.0837 43.9095 21.399 43.8812 21.5761 43.6693C21.7531 43.4574 21.7248 43.1421 21.5129 42.965L20.8718 43.7324ZM11.9977 26.5103L12.4977 26.5103L11.9977 26.5103ZM22.774 8.41825C23.005 8.26693 23.0696 7.95701 22.9182 7.72601C22.7669 7.49502 22.457 7.43043 22.226 7.58175L22.774 8.41825ZM39.3238 23.2987C38.9463 22.9708 38.9464 22.9707 38.9464 22.9707C38.9464 22.9708 38.9463 22.9708 38.9462 22.9709C38.9461 22.9711 38.9458 22.9714 38.9453 22.9719C38.9445 22.9729 38.9431 22.9745 38.9411 22.9768C38.9372 22.9812 38.9312 22.9881 38.9231 22.9973C38.9068 23.0157 38.8822 23.0434 38.8494 23.08C38.7838 23.1531 38.6857 23.2612 38.5571 23.3996C38.2999 23.6764 37.921 24.0739 37.4371 24.5533C36.4689 25.5128 35.0829 26.7979 33.4127 28.1008C30.0551 30.7198 25.6217 33.3522 21.16 33.6418L21.2248 34.6397C25.9954 34.3301 30.6278 31.5414 34.0278 28.8892C35.7364 27.5565 37.1522 26.2435 38.141 25.2637C38.6357 24.7735 39.0241 24.3661 39.2896 24.0804C39.4224 23.9375 39.5245 23.825 39.5938 23.7478C39.6284 23.7091 39.6549 23.6793 39.6729 23.6589C39.6819 23.6487 39.6887 23.6409 39.6935 23.6355C39.6959 23.6328 39.6977 23.6307 39.699 23.6292C39.6996 23.6285 39.7001 23.6279 39.7005 23.6275C39.7007 23.6272 39.7009 23.627 39.701 23.6269C39.7011 23.6268 39.7012 23.6266 39.3238 23.2987ZM21.16 33.6418C16.6601 33.9339 12.4047 32.5584 9.25564 31.0919C7.68452 30.3602 6.39768 29.6099 5.50478 29.0434C5.05852 28.7603 4.71122 28.5234 4.47659 28.3582C4.35929 28.2756 4.27021 28.2109 4.21105 28.1673C4.18147 28.1455 4.15937 28.129 4.14498 28.1182C4.13779 28.1128 4.13251 28.1088 4.12919 28.1063C4.12754 28.105 4.12636 28.1041 4.12569 28.1036C4.12535 28.1034 4.12513 28.1032 4.12504 28.1031C4.12499 28.1031 4.12501 28.1031 4.12499 28.1031C4.12504 28.1031 4.12512 28.1032 3.82091 28.5C3.5167 28.8968 3.51684 28.8969 3.51702 28.8971C3.51712 28.8971 3.51733 28.8973 3.51753 28.8974C3.51793 28.8978 3.51846 28.8982 3.51911 28.8986C3.52041 28.8996 3.52221 28.901 3.52449 28.9027C3.52907 28.9062 3.53561 28.9112 3.5441 28.9176C3.56107 28.9303 3.58581 28.9488 3.61809 28.9726C3.68267 29.0201 3.77746 29.0889 3.90075 29.1757C4.1473 29.3494 4.508 29.5953 4.96905 29.8878C5.89075 30.4726 7.21574 31.245 8.83346 31.9984C12.062 33.502 16.4925 34.9469 21.2248 34.6397L21.16 33.6418ZM37.0381 33.8991C37.0943 33.4022 37.0943 33.4022 37.0944 33.4022C37.0943 33.4022 37.0943 33.4022 37.0942 33.4022C37.094 33.4022 37.0936 33.4021 37.093 33.4021C37.0918 33.4019 37.09 33.4017 37.0874 33.4014C37.0822 33.4008 37.0742 33.3999 37.0634 33.3986C37.0419 33.396 37.0092 33.392 36.966 33.3864C36.8795 33.3753 36.7507 33.3581 36.584 33.3338C36.2504 33.2854 35.7652 33.209 35.1625 33.0977C33.9567 32.875 32.2834 32.513 30.4163 31.9566C26.6674 30.8394 22.2002 28.9566 19.1399 25.8963L18.4328 26.6034C21.6693 29.84 26.3279 31.7817 30.1307 32.915C32.0394 33.4838 33.7485 33.8534 34.9809 34.081C35.5974 34.1949 36.0953 34.2734 36.4402 34.3235C36.6126 34.3485 36.7469 34.3665 36.8386 34.3783C36.8844 34.3841 36.9197 34.3885 36.9437 34.3914C36.9557 34.3928 36.965 34.3939 36.9714 34.3947C36.9746 34.395 36.977 34.3953 36.9788 34.3955C36.9797 34.3956 36.9804 34.3957 36.9809 34.3958C36.9811 34.3958 36.9814 34.3958 36.9815 34.3958C36.9817 34.3959 36.9819 34.3959 37.0381 33.8991ZM19.1399 25.8963C15.8779 22.6343 14.5842 18.5633 14.1112 15.2802C13.875 13.641 13.8449 12.2074 13.8737 11.185C13.8881 10.6741 13.9173 10.2668 13.9425 9.98902C13.9552 9.85014 13.9668 9.74369 13.9752 9.6729C13.9794 9.63752 13.9827 9.61105 13.985 9.59392C13.9861 9.58535 13.987 9.57912 13.9875 9.57527C13.9878 9.57334 13.9879 9.57202 13.988 9.57129C13.9881 9.57093 13.9881 9.57071 13.9881 9.57065C13.9881 9.57062 13.9881 9.57069 13.9881 9.57067C13.9881 9.57078 13.9881 9.57093 13.4931 9.5C12.9982 9.42907 12.9982 9.4293 12.9981 9.42955C12.9981 9.42969 12.9981 9.42999 12.998 9.43026C12.998 9.43081 12.9979 9.43151 12.9977 9.43237C12.9975 9.43407 12.9972 9.43639 12.9968 9.43931C12.996 9.44514 12.9949 9.45338 12.9935 9.46398C12.9907 9.48518 12.9868 9.51581 12.9821 9.55546C12.9727 9.63475 12.9601 9.75016 12.9466 9.89843C12.9197 10.1949 12.8892 10.6231 12.8741 11.1568C12.844 12.2235 12.8754 13.7157 13.1214 15.4228C13.6127 18.8324 14.9656 23.1363 18.4328 26.6034L19.1399 25.8963ZM21.1924 43.3487C21.5129 42.965 21.513 42.9651 21.5131 42.9651C21.513 42.9651 21.513 42.9651 21.513 42.965C21.5128 42.9649 21.5126 42.9647 21.5121 42.9644C21.5113 42.9637 21.51 42.9625 21.508 42.9609C21.5042 42.9577 21.4982 42.9526 21.4901 42.9457C21.474 42.932 21.4494 42.9109 21.417 42.8827C21.3522 42.8264 21.2561 42.7418 21.1331 42.6303C20.8872 42.4073 20.534 42.0772 20.1095 41.652C19.2599 40.8011 18.127 39.5725 16.995 38.0631C14.7216 35.0316 12.4977 30.9288 12.4977 26.5103L11.4977 26.5103C11.4977 31.248 13.8712 35.5644 16.195 38.6631C17.3617 40.2187 18.5275 41.4829 19.4019 42.3586C19.8393 42.7967 20.2046 43.1383 20.4614 43.3712C20.5899 43.4876 20.6913 43.577 20.7612 43.6377C20.7961 43.668 20.8232 43.6912 20.8418 43.7071C20.8511 43.715 20.8583 43.7211 20.8633 43.7253C20.8658 43.7274 20.8678 43.7291 20.8692 43.7303C20.8699 43.7309 20.8705 43.7313 20.8709 43.7317C20.8711 43.7319 20.8713 43.7321 20.8714 43.7321C20.8716 43.7323 20.8718 43.7324 21.1924 43.3487ZM12.4977 26.5103C12.4977 20.8515 15.0523 16.3333 17.6341 13.2124C18.9236 11.6537 20.2137 10.4514 21.1805 9.63961C21.6637 9.23394 22.0653 8.92646 22.3446 8.72137C22.4843 8.61884 22.5933 8.54197 22.6666 8.49126C22.7032 8.46591 22.7309 8.4471 22.749 8.43491C22.7581 8.42881 22.7647 8.42437 22.7689 8.42159C22.771 8.4202 22.7725 8.41923 22.7733 8.41867C22.7738 8.41839 22.774 8.41822 22.7741 8.41815C22.7742 8.41811 22.7742 8.41814 22.7742 8.41812C22.7741 8.41817 22.774 8.41825 22.5 8C22.226 7.58175 22.2258 7.58188 22.2256 7.58204C22.2254 7.58212 22.2252 7.5823 22.2249 7.58248C22.2244 7.58283 22.2237 7.58328 22.2228 7.58384C22.2211 7.58496 22.2188 7.58651 22.2158 7.58847C22.2099 7.59239 22.2015 7.59799 22.1907 7.60527C22.1691 7.61982 22.1378 7.64107 22.0975 7.66894C22.017 7.72469 21.9004 7.80698 21.7528 7.91529C21.4578 8.13187 21.0389 8.45273 20.5375 8.87377C19.5352 9.71535 18.1997 10.9599 16.8636 12.575C14.1942 15.8017 11.4977 20.5386 11.4977 26.5103L12.4977 26.5103Z" fill="#3C3C3C"/>
<circle cx="29" cy="32" r="2" fill="#3C3C3C"/>
<circle cx="13" cy="33" r="2" fill="#3C3C3C"/>
<circle cx="14" cy="18" r="2" fill="#3C3C3C"/>
<path d="M34 4.5C36.5186 4.5 38.9389 5.50421 40.7169 7.28193C42.4961 9.06946 43.5 11.4819 43.5 14C43.5 16.5181 42.4962 18.9304 40.7171 20.7179C38.9306 22.5042 36.519 23.5 34 23.5C31.4811 23.5 29.0606 22.4956 27.2825 20.7175C25.496 18.931 24.5 16.5192 24.5 14C24.5 11.4811 25.5044 9.06056 27.2825 7.28249C29.069 5.49599 31.4807 4.5 34 4.5Z" fill="#76B82A" stroke="#3C3C3C" stroke-miterlimit="1.5" stroke-linecap="square"/>
<path d="M30 14.5562L33.0289 17.5L38.5 11" stroke="#3C3C3C" stroke-miterlimit="1.5" stroke-linecap="square"/>
</svg>
