<?xml version="1.0" encoding="UTF-8"?>
<svg width="800px" height="800px" viewBox="0 0 800 800" version="1.1" xmlns="http://www.w3.org/2000/svg" xmlns:xlink="http://www.w3.org/1999/xlink">
    <!-- Generator: Sketch 54.1 (76490) - https://sketchapp.com -->
    <title>Youtube / Logo / Bunting  </title>
    <desc>Created with Sketch.</desc>
    <defs>
        <linearGradient x1="36.74184%" y1="100.517646%" x2="37.1163138%" y2="-0.000767450874%" id="linearGradient-1">
            <stop stop-color="#DD5F29" offset="0%"></stop>
            <stop stop-color="#F26B32" offset="26.0417%"></stop>
            <stop stop-color="#FAC932" offset="100%"></stop>
        </linearGradient>
        <linearGradient x1="28.0463044%" y1="100.517773%" x2="28.4207007%" y2="-0.00292622261%" id="linearGradient-2">
            <stop stop-color="#DD5F29" offset="0%"></stop>
            <stop stop-color="#F26B32" offset="26.0417%"></stop>
            <stop stop-color="#FAC932" offset="100%"></stop>
        </linearGradient>
        <linearGradient x1="38.2149546%" y1="100.517638%" x2="38.5894076%" y2="0%" id="linearGradient-3">
            <stop stop-color="#DD5F29" offset="0%"></stop>
            <stop stop-color="#F26B32" offset="26.0417%"></stop>
            <stop stop-color="#FAC932" offset="100%"></stop>
        </linearGradient>
    </defs>
    <g id="Youtube-/-Logo-/-Bunting--" stroke="none" stroke-width="1" fill="none" fill-rule="evenodd">
        <rect fill="#172153" x="0" y="0" width="800" height="800"></rect>
        <g id="Logo/Logo" transform="translate(251.420005, 137.800009)">
            <g id="Logo">
                <path d="M218.617109,270.6153 C208.86458,270.6153 199.721229,264.925997 195.251157,255.985851 L187.530241,238.715612 L110.930261,238.715612 L103.209346,255.985851 C98.7392727,264.925997 89.595922,270.6153 79.8433933,270.6153 L75.7797305,270.6153 L108.492238,519.920733 C110.117441,524.592263 113.165079,524.592263 114.993924,519.920733 L147.503227,440.273115 L175.745662,519.715343 C177.371302,524.391243 180.41894,524.391243 182.247348,519.715343 L220.039544,270.818505 L218.617109,270.6153 Z" id="Path" fill="url(#linearGradient-1)"></path>
                <path d="M184.470804,231.783918 L114.169742,231.783918 L103.400752,255.96269 C99.7434987,263.277196 92.6321979,268.560089 84.9112822,269.982087 L109.699669,423.791661 C111.324872,426.636094 114.37251,426.636094 116.201355,423.791661 L147.897838,375.637321 L176.953093,423.588456 C178.781501,426.432889 181.626371,426.432889 183.454779,423.588456 L211.494009,269.576114 C204.585913,267.544064 198.4902,262.667581 195.239358,255.96269 L184.470804,231.783918 Z" id="Path" fill="url(#linearGradient-2)"></path>
                <path d="M195.258586,255.988473 L149.136296,152.974467 L103.216775,255.988473 C101.591135,259.036111 99.5595217,261.677339 97.1210618,263.912594 L116.220583,366.113344 C117.236171,367.535779 119.877836,367.942189 121.706244,366.113344 L147.307451,332.182043 L172.908658,365.910139 C174.533861,367.942189 177.378294,367.535779 178.394319,365.910139 L199.525453,262.490159 C197.899813,260.458109 196.477815,258.426496 195.258586,255.988473 Z" id="Path" fill="url(#linearGradient-3)"></path>
                <path d="M2.01901422,12.7586953 C0.59673222,7.88229984 3.44129186,4.42816455 8.31768292,4.42816455 L48.7512814,4.42816455 C51.5957143,4.42816455 54.2369422,6.86636227 55.0497622,9.30455999 L84.7146322,126.134802 L86.1366301,126.134802 L139.573862,4.83453084 C140.589887,2.80272126 142.6215,0.974072968 145.465933,0.974072968 L151.764851,0.974072968 C154.812489,0.974072968 156.844539,2.59953811 157.656922,4.83453084 L211.094154,126.134802 L212.516589,126.134802 L242.181022,9.30455999 C242.790637,6.86636227 245.63507,4.42816455 248.47994,4.42816455 L288.913363,4.42816455 C293.789846,4.42816455 296.431074,7.88229984 295.211844,12.7586953 L229.990033,244.386998 C229.380855,247.231868 226.535985,249.263481 223.691553,249.263481 L218.205455,249.263481 C215.767432,249.263481 213.329409,247.638278 212.313384,245.403023 L149.123623,104.394053 L148.107598,104.394053 L85.3238102,245.403023 C84.3082222,247.435073 81.8697623,249.263481 79.4317394,249.263481 L73.9456415,249.263481 C71.1012086,249.263481 68.4599807,247.231868 67.6471607,244.386998 L2.01901422,12.7586953 Z" id="Path" fill="#F56F46"></path>
            </g>
        </g>
    </g>
</svg>