<svg width="48" height="48" viewBox="0 0 48 48" fill="none" xmlns="http://www.w3.org/2000/svg">
<path d="M19.5 31.5H28.5V37.5H19.5V31.5Z" fill="white" stroke="#3C3C3C" stroke-miterlimit="1.5"/>
<path d="M4.5 7.5H43.5V34.5H4.5V7.5Z" fill="white" stroke="#3C3C3C" stroke-miterlimit="1.5"/>
<rect x="0.25" y="-0.25" width="19.5" height="0.5" transform="matrix(1 0 0 -1 14 37.5)" fill="white" stroke="#3C3C3C" stroke-width="0.5" stroke-miterlimit="1.5"/>
<path d="M7.1476 39.9623C7.1476 39.9623 7.28343 39.707 7.42776 39.4369C7.64668 39.0277 7.74097 38.5632 7.70034 38.0966C7.6346 37.3323 7.53397 36.1214 7.46568 35.3163C7.42038 34.7825 7.55111 34.255 7.83855 33.8124C8.25952 33.1635 8.89947 32.1755 9.37943 31.4345C9.7499 30.8631 10.5178 30.6923 11.1263 31.0436C11.1263 31.0436 13.2917 27.293 14.2839 25.5745C14.4126 25.3515 14.6278 25.1896 14.8818 25.1259C15.1359 25.0623 15.4086 25.1019 15.6389 25.2349C16.1191 25.5122 16.2907 26.1133 16.0223 26.5781C15.1394 28.1074 13.3649 31.1861 13.3649 31.1861C13.6575 30.6791 14.3181 30.5136 14.8418 30.816C15.3655 31.1183 15.5524 31.7732 15.2598 32.2801L15.0242 32.6882C15.3518 32.3164 15.9198 32.2208 16.3805 32.4868C16.9042 32.7892 17.0911 33.444 16.7984 33.951L16.5543 34.3738C16.882 34.002 17.4512 33.9043 17.9119 34.1703C18.4117 34.4589 18.6062 35.0704 18.3665 35.5659L18.2703 35.7375C18.2703 35.7375 17.2393 37.5234 16.1657 39.3829C15.9544 39.7489 15.6866 40.0823 15.372 40.3662C14.8731 40.8187 14.1017 41.5176 13.6925 41.89C13.5083 42.0585 13.3509 42.2509 13.2258 42.4675C13.0424 42.7852 12.791 43.2206 12.791 43.2206" fill="white"/>
<path d="M7.1476 39.9623C7.1476 39.9623 7.28343 39.707 7.42776 39.4369C7.64668 39.0277 7.74097 38.5632 7.70034 38.0966C7.6346 37.3323 7.53397 36.1214 7.46568 35.3163C7.42038 34.7825 7.55111 34.255 7.83855 33.8124C8.25952 33.1635 8.89947 32.1755 9.37943 31.4345C9.7499 30.8631 10.5178 30.6923 11.1263 31.0436M11.1263 31.0436C11.1263 31.0436 13.2917 27.293 14.2839 25.5745C14.4126 25.3515 14.6278 25.1896 14.8818 25.1259C15.1359 25.0623 15.4086 25.1019 15.6389 25.2349C16.1191 25.5122 16.2907 26.1133 16.0223 26.5781C15.1394 28.1074 13.3649 31.1861 13.3649 31.1861C13.6575 30.6791 14.3181 30.5136 14.8418 30.816C15.3655 31.1183 15.5524 31.7732 15.2598 32.2801L15.0242 32.6882C15.3518 32.3164 15.9198 32.2208 16.3805 32.4868C16.9042 32.7892 17.0911 33.444 16.7984 33.951L16.5543 34.3738C16.882 34.002 17.4512 33.9043 17.9119 34.1703C18.4117 34.4589 18.6062 35.0704 18.3665 35.5659L18.2703 35.7375C18.2703 35.7375 17.2393 37.5234 16.1657 39.3829C15.9544 39.7489 15.6866 40.0823 15.372 40.3662C14.8731 40.8187 14.1017 41.5176 13.6925 41.89C13.5083 42.0585 13.3509 42.2509 13.2258 42.4675C13.0424 42.7852 12.791 43.2206 12.791 43.2206M11.1263 31.0436L9.62752 33.6052" stroke="#3C3C3C" stroke-miterlimit="1.5"/>
<mask id="path-6-inside-1_1184_1596" fill="white">
<path fill-rule="evenodd" clip-rule="evenodd" d="M34.6242 12.6307C32.4502 10.4568 28.9255 10.4568 26.7515 12.6307L24.1273 15.2549L21.5031 12.6307C19.3291 10.4568 15.8044 10.4568 13.6305 12.6307C11.4565 14.8047 11.4565 18.3294 13.6305 20.5034L16.2547 23.1276L24.1273 31.0002L24.1273 31.0002L31.9999 23.1276L34.6242 20.5033C36.7981 18.3294 36.7981 14.8047 34.6242 12.6307Z"/>
</mask>
<path fill-rule="evenodd" clip-rule="evenodd" d="M34.6242 12.6307C32.4502 10.4568 28.9255 10.4568 26.7515 12.6307L24.1273 15.2549L21.5031 12.6307C19.3291 10.4568 15.8044 10.4568 13.6305 12.6307C11.4565 14.8047 11.4565 18.3294 13.6305 20.5034L16.2547 23.1276L24.1273 31.0002L24.1273 31.0002L31.9999 23.1276L34.6242 20.5033C36.7981 18.3294 36.7981 14.8047 34.6242 12.6307Z" fill="#FFE1C0"/>
<path d="M26.7515 12.6307L27.4586 13.3378L27.4586 13.3378L26.7515 12.6307ZM34.6242 12.6307L35.3313 11.9236L35.3313 11.9236L34.6242 12.6307ZM24.1273 15.2549L23.4202 15.9621L24.1273 16.6692L24.8344 15.9621L24.1273 15.2549ZM21.5031 12.6307L20.796 13.3378L20.796 13.3378L21.5031 12.6307ZM13.6305 12.6307L12.9234 11.9236L12.9234 11.9236L13.6305 12.6307ZM13.6305 20.5034L12.9234 21.2105L12.9234 21.2105L13.6305 20.5034ZM16.2547 23.1276L16.9618 22.4204L16.9618 22.4204L16.2547 23.1276ZM24.1273 31.0002L23.4202 31.7073L23.9999 32.287L24.682 31.8322L24.1273 31.0002ZM24.1273 31.0002L24.682 31.8322L24.7644 31.7773L24.8344 31.7073L24.1273 31.0002ZM31.9999 23.1276L31.2928 22.4205L31.2928 22.4205L31.9999 23.1276ZM34.6242 20.5033L35.3313 21.2105L35.3313 21.2105L34.6242 20.5033ZM27.4586 13.3378C29.2421 11.5544 32.1336 11.5544 33.9171 13.3378L35.3313 11.9236C32.7668 9.35912 28.6089 9.35912 26.0444 11.9236L27.4586 13.3378ZM24.8344 15.9621L27.4586 13.3378L26.0444 11.9236L23.4202 14.5478L24.8344 15.9621ZM20.796 13.3378L23.4202 15.9621L24.8344 14.5478L22.2102 11.9236L20.796 13.3378ZM14.3376 13.3378C16.121 11.5544 19.0126 11.5544 20.796 13.3378L22.2102 11.9236C19.6457 9.35914 15.4879 9.35914 12.9234 11.9236L14.3376 13.3378ZM14.3376 19.7963C12.5541 18.0128 12.5541 15.1213 14.3376 13.3378L12.9234 11.9236C10.3589 14.4881 10.3589 18.646 12.9234 21.2105L14.3376 19.7963ZM16.9618 22.4204L14.3376 19.7962L12.9234 21.2105L15.5476 23.8347L16.9618 22.4204ZM24.8344 30.2931L16.9618 22.4204L15.5476 23.8347L23.4202 31.7073L24.8344 30.2931ZM23.5726 30.1681L23.5726 30.1681L24.682 31.8322L24.682 31.8322L23.5726 30.1681ZM31.2928 22.4205L23.4202 30.2931L24.8344 31.7073L32.707 23.8347L31.2928 22.4205ZM33.9171 19.7962L31.2928 22.4205L32.707 23.8347L35.3313 21.2105L33.9171 19.7962ZM33.9171 13.3378C35.7005 15.1213 35.7005 18.0128 33.9171 19.7962L35.3313 21.2105C37.8958 18.646 37.8958 14.4881 35.3313 11.9236L33.9171 13.3378Z" fill="#3C3C3C" mask="url(#path-6-inside-1_1184_1596)"/>
<path d="M17 20.2727H20.2503L21.3337 18.7455L23.9649 23L26.7508 17L28.4534 20.2727H31.5" stroke="#3C3C3C"/>
</svg>
