<svg width="144" height="144" viewBox="0 0 144 144" fill="none" xmlns="http://www.w3.org/2000/svg">
    <rect x="8.65" y="35.65" width="103.7" height="99.7" fill="white" stroke="#3C3C3C" stroke-width="1.3"/>
    <rect x="8" y="110" width="104" height="1.3" fill="#3C3C3C"/>
    <rect x="8" y="85" width="104" height="1.3" fill="#3C3C3C"/>
    <rect x="9" y="60" width="104" height="1.3" fill="#3C3C3C"/>
    <path d="M28.35 47.5C28.35 49.6263 26.6263 51.35 24.5 51.35C22.3737 51.35 20.65 49.6263 20.65 47.5C20.65 45.3737 22.3737 43.65 24.5 43.65C26.6263 43.65 28.35 45.3737 28.35 47.5Z" fill="#BADB94" stroke="#3C3C3C" stroke-width="1.3" stroke-miterlimit="1.5" stroke-linecap="round" stroke-linejoin="round"/>
    <path d="M28.35 73.5C28.35 75.6263 26.6263 77.35 24.5 77.35C22.3737 77.35 20.65 75.6263 20.65 73.5C20.65 71.3737 22.3737 69.65 24.5 69.65C26.6263 69.65 28.35 71.3737 28.35 73.5Z" fill="#BADB94" stroke="#3C3C3C" stroke-width="1.3" stroke-miterlimit="1.5" stroke-linecap="round" stroke-linejoin="round"/>
    <path d="M28.35 98.5C28.35 100.626 26.6263 102.35 24.5 102.35C22.3737 102.35 20.65 100.626 20.65 98.5C20.65 96.3737 22.3737 94.65 24.5 94.65C26.6263 94.65 28.35 96.3737 28.35 98.5Z" fill="#BADB94" stroke="#3C3C3C" stroke-width="1.3" stroke-miterlimit="1.5" stroke-linecap="round" stroke-linejoin="round"/>
    <path d="M28.35 122.5C28.35 124.626 26.6263 126.35 24.5 126.35C22.3737 126.35 20.65 124.626 20.65 122.5C20.65 120.374 22.3737 118.65 24.5 118.65C26.6263 118.65 28.35 120.374 28.35 122.5Z" fill="#BADB94" stroke="#3C3C3C" stroke-width="1.3" stroke-miterlimit="1.5" stroke-linecap="round" stroke-linejoin="round"/>
    <circle cx="104" cy="40" r="31.3067" fill="#DFCBE1" stroke="#3C3C3C" stroke-width="1.38667" stroke-miterlimit="1.5" stroke-linecap="round" stroke-linejoin="round"/>
    <mask id="mask0" mask-type="alpha" maskUnits="userSpaceOnUse" x="72" y="8" width="64" height="64">
        <circle cx="104" cy="40" r="31.35" fill="#DECAE1" stroke="#3C3C3C" stroke-width="1.3" stroke-miterlimit="1.5" stroke-linecap="round" stroke-linejoin="round"/>
    </mask>
    <g mask="url(#mask0)">
        <path d="M130.619 24.1991L130.892 23.35H130H123.392H122.908L122.769 23.8134L115.15 49.2382L107.617 23.8153L107.479 23.35H106.994H101.467H100.985L100.845 23.8105L93.1418 49.0897L85.7386 23.8173L85.6017 23.35H85.1148H78H77.1081L77.3812 24.1991L88.964 60.1991L89.1091 60.65H89.5828H95.9853H96.4669L96.6072 60.1892L104.087 35.6103L111.438 60.1863L111.577 60.65H112.061H118.417H118.891L119.036 60.1991L130.619 24.1991Z" fill="white" stroke="#3C3C3C" stroke-width="1.3"/>
    </g>
</svg>
