<svg width="48" height="48" viewBox="0 0 48 48" fill="none" xmlns="http://www.w3.org/2000/svg">
<mask id="path-1-inside-1_15407_104160" fill="white">
<path fill-rule="evenodd" clip-rule="evenodd" d="M11.9518 2H15.0481L15.5408 4.68232C17.6403 5.12112 19.4956 6.22329 20.8764 7.75911L23.4518 6.84316L25 9.51972L22.9196 11.2863C23.2367 12.2545 23.4082 13.2884 23.4082 14.3623C23.4082 15.4364 23.2366 16.4705 22.9194 17.4388L25 19.2055L23.4518 21.8821L20.8759 20.966C19.4952 22.5015 17.6401 23.6035 15.5409 24.0423L15.0481 26.725H11.9518L11.4591 24.0423C9.35987 23.6035 7.50486 22.5016 6.12411 20.9661L3.54815 21.8822L2 19.2057L4.08059 17.4389C3.76336 16.4706 3.59181 15.4364 3.59181 14.3623C3.59181 13.2884 3.7633 12.2544 4.08043 11.2862L2.00001 9.51961L3.54816 6.84305L6.12367 7.75903C7.50448 6.22325 9.35969 5.12111 11.4592 4.68232L11.9518 2Z"/>
</mask>
<path fill-rule="evenodd" clip-rule="evenodd" d="M11.9518 2H15.0481L15.5408 4.68232C17.6403 5.12112 19.4956 6.22329 20.8764 7.75911L23.4518 6.84316L25 9.51972L22.9196 11.2863C23.2367 12.2545 23.4082 13.2884 23.4082 14.3623C23.4082 15.4364 23.2366 16.4705 22.9194 17.4388L25 19.2055L23.4518 21.8821L20.8759 20.966C19.4952 22.5015 17.6401 23.6035 15.5409 24.0423L15.0481 26.725H11.9518L11.4591 24.0423C9.35987 23.6035 7.50486 22.5016 6.12411 20.9661L3.54815 21.8822L2 19.2057L4.08059 17.4389C3.76336 16.4706 3.59181 15.4364 3.59181 14.3623C3.59181 13.2884 3.7633 12.2544 4.08043 11.2862L2.00001 9.51961L3.54816 6.84305L6.12367 7.75903C7.50448 6.22325 9.35969 5.12111 11.4592 4.68232L11.9518 2Z" fill="#FCE6F1"/>
<path d="M15.0481 2L16.0317 1.81935L15.8812 1H15.0481V2ZM11.9518 2V1H11.1188L10.9683 1.81935L11.9518 2ZM15.5408 4.68232L14.5573 4.86297L14.6786 5.52373L15.3362 5.66117L15.5408 4.68232ZM20.8764 7.75911L20.1328 8.4277L20.5805 8.92571L21.2115 8.7013L20.8764 7.75911ZM23.4518 6.84316L24.3175 6.34247L23.9008 5.62212L23.1168 5.90097L23.4518 6.84316ZM25 9.51972L25.6473 10.282L26.2836 9.74163L25.8656 9.01903L25 9.51972ZM22.9196 11.2863L22.2723 10.5241L21.7601 10.959L21.9693 11.5976L22.9196 11.2863ZM22.9194 17.4388L21.9691 17.1275L21.7599 17.7661L22.2721 18.201L22.9194 17.4388ZM25 19.2055L25.8656 19.7062L26.2836 18.9836L25.6473 18.4433L25 19.2055ZM23.4518 21.8821L23.1168 22.8243L23.9008 23.1031L24.3175 22.3828L23.4518 21.8821ZM20.8759 20.966L21.211 20.0238L20.5801 19.7994L20.1324 20.2974L20.8759 20.966ZM15.5409 24.0423L15.3363 23.0634L14.6787 23.2009L14.5573 23.8616L15.5409 24.0423ZM15.0481 26.725V27.725H15.8812L16.0317 26.9056L15.0481 26.725ZM11.9518 26.725L10.9683 26.9056L11.1188 27.725H11.9518V26.725ZM11.4591 24.0423L12.4426 23.8616L12.3213 23.2009L11.6637 23.0634L11.4591 24.0423ZM6.12411 20.9661L6.8677 20.2974L6.41995 19.7995L5.78903 20.0239L6.12411 20.9661ZM3.54815 21.8822L2.68253 22.3829L3.09918 23.1033L3.88324 22.8244L3.54815 21.8822ZM2 19.2057L1.35272 18.4434L0.716409 18.9837L1.13437 19.7063L2 19.2057ZM4.08059 17.4389L4.72787 18.2011L5.24011 17.7662L5.03089 17.1275L4.08059 17.4389ZM4.08043 11.2862L5.03075 11.5975L5.23992 10.9589L4.72771 10.524L4.08043 11.2862ZM2.00001 9.51961L1.13438 9.01892L0.716415 9.74153L1.35272 10.2819L2.00001 9.51961ZM3.54816 6.84305L3.88325 5.90086L3.09919 5.62201L2.68253 6.34236L3.54816 6.84305ZM6.12367 7.75903L5.78858 8.70122L6.41955 8.92562L6.8673 8.42762L6.12367 7.75903ZM11.4592 4.68232L11.6637 5.66117L12.3214 5.52374L12.4427 4.86297L11.4592 4.68232ZM15.0481 1H11.9518V3H15.0481V1ZM16.5244 4.50167L16.0317 1.81935L14.0646 2.18065L14.5573 4.86297L16.5244 4.50167ZM21.62 7.09053C20.101 5.401 18.0587 4.18695 15.7454 3.70347L15.3362 5.66117C17.2219 6.05528 18.8901 7.04557 20.1328 8.4277L21.62 7.09053ZM21.2115 8.7013L23.7869 7.78534L23.1168 5.90097L20.5413 6.81693L21.2115 8.7013ZM22.5862 7.34385L24.1344 10.0204L25.8656 9.01903L24.3175 6.34247L22.5862 7.34385ZM24.3527 8.75746L22.2723 10.5241L23.5669 12.0486L25.6473 10.282L24.3527 8.75746ZM24.4082 14.3623C24.4082 13.1814 24.2195 12.0424 23.8699 10.9751L21.9693 11.5976C22.2539 12.4665 22.4082 13.3955 22.4082 14.3623H24.4082ZM23.8697 17.7501C24.2195 16.6826 24.4082 15.5435 24.4082 14.3623H22.4082C22.4082 15.3293 22.2538 16.2584 21.9691 17.1275L23.8697 17.7501ZM25.6473 18.4433L23.5667 16.6765L22.2721 18.201L24.3527 19.9678L25.6473 18.4433ZM24.3175 22.3828L25.8656 19.7062L24.1344 18.7049L22.5862 21.3814L24.3175 22.3828ZM20.5409 21.9082L23.1168 22.8243L23.7869 20.9399L21.211 20.0238L20.5409 21.9082ZM15.7455 25.0211C18.0585 24.5377 20.1006 23.3238 21.6195 21.6346L20.1324 20.2974C18.8898 21.6792 17.2218 22.6693 15.3363 23.0634L15.7455 25.0211ZM16.0317 26.9056L16.5244 24.2229L14.5573 23.8616L14.0646 26.5443L16.0317 26.9056ZM11.9518 27.725H15.0481V25.725H11.9518V27.725ZM10.4755 24.2229L10.9683 26.9056L12.9354 26.5443L12.4426 23.8616L10.4755 24.2229ZM5.38053 21.6347C6.89946 23.3239 8.94151 24.5377 11.2545 25.0211L11.6637 23.0634C9.77824 22.6694 8.11027 21.6793 6.8677 20.2974L5.38053 21.6347ZM3.88324 22.8244L6.4592 21.9083L5.78903 20.0239L3.21307 20.94L3.88324 22.8244ZM1.13437 19.7063L2.68253 22.3829L4.41378 21.3815L2.86563 18.705L1.13437 19.7063ZM3.43331 16.6766L1.35272 18.4434L2.64728 19.9679L4.72787 18.2011L3.43331 16.6766ZM2.59181 14.3623C2.59181 15.5435 2.78054 16.6826 3.13029 17.7502L5.03089 17.1275C4.74617 16.2585 4.59181 15.3294 4.59181 14.3623H2.59181ZM3.13011 10.975C2.78048 12.0424 2.59181 13.1813 2.59181 14.3623H4.59181C4.59181 13.3954 4.74611 12.4665 5.03075 11.5975L3.13011 10.975ZM1.35272 10.2819L3.43315 12.0485L4.72771 10.524L2.64729 8.75736L1.35272 10.2819ZM2.68253 6.34236L1.13438 9.01892L2.86563 10.0203L4.41379 7.34374L2.68253 6.34236ZM6.45876 6.81684L3.88325 5.90086L3.21307 7.78524L5.78858 8.70122L6.45876 6.81684ZM11.2546 3.70347C8.94131 4.18695 6.89904 5.40096 5.38004 7.09044L6.8673 8.42762C8.10992 7.04554 9.77807 6.05528 11.6637 5.66117L11.2546 3.70347ZM10.9683 1.81935L10.4756 4.50168L12.4427 4.86297L12.9354 2.18065L10.9683 1.81935Z" fill="#3C3C3C" mask="url(#path-1-inside-1_15407_104160)"/>
<path d="M19.7683 14.3629C19.7683 17.841 16.9432 20.6622 13.4564 20.6622C9.96959 20.6622 7.14453 17.841 7.14453 14.3629C7.14453 10.8847 9.96959 8.06348 13.4564 8.06348C16.9432 8.06348 19.7683 10.8847 19.7683 14.3629Z" fill="white" stroke="#3C3C3C"/>
<mask id="path-4-inside-2_15407_104160" fill="white">
<path fill-rule="evenodd" clip-rule="evenodd" d="M30.9078 19H34.3015L34.8415 21.94C37.1426 22.4209 39.176 23.6289 40.6895 25.3122L43.5124 24.3082L45.2093 27.2419L42.929 29.1782C43.2766 30.2394 43.4646 31.3727 43.4646 32.5498C43.4646 33.727 43.2766 34.8603 42.9289 35.9215L45.2093 37.858L43.5124 40.7916L40.6893 39.7876C39.1759 41.4707 37.1426 42.6787 34.8416 43.1596L34.3015 46.1H30.9078L30.3677 43.1596C28.0668 42.6787 26.0335 41.4708 24.5202 39.7878L21.6969 40.7919L20 37.8582L22.2804 35.9218C21.9327 34.8605 21.7447 33.727 21.7447 32.5498C21.7447 31.3726 21.9327 30.2393 22.2803 29.178L20 27.2416L21.6969 24.308L24.52 25.312C26.0334 23.6288 28.0667 22.4209 30.3678 21.94L30.9078 19Z"/>
</mask>
<path fill-rule="evenodd" clip-rule="evenodd" d="M30.9078 19H34.3015L34.8415 21.94C37.1426 22.4209 39.176 23.6289 40.6895 25.3122L43.5124 24.3082L45.2093 27.2419L42.929 29.1782C43.2766 30.2394 43.4646 31.3727 43.4646 32.5498C43.4646 33.727 43.2766 34.8603 42.9289 35.9215L45.2093 37.858L43.5124 40.7916L40.6893 39.7876C39.1759 41.4707 37.1426 42.6787 34.8416 43.1596L34.3015 46.1H30.9078L30.3677 43.1596C28.0668 42.6787 26.0335 41.4708 24.5202 39.7878L21.6969 40.7919L20 37.8582L22.2804 35.9218C21.9327 34.8605 21.7447 33.727 21.7447 32.5498C21.7447 31.3726 21.9327 30.2393 22.2803 29.178L20 27.2416L21.6969 24.308L24.52 25.312C26.0334 23.6288 28.0667 22.4209 30.3678 21.94L30.9078 19Z" fill="#76B82A"/>
<path d="M34.3015 19L35.285 18.8194L35.1346 18H34.3015V19ZM30.9078 19V18H30.0747L29.9242 18.8194L30.9078 19ZM34.8415 21.94L33.8579 22.1206L33.9793 22.7814L34.6369 22.9188L34.8415 21.94ZM40.6895 25.3122L39.9459 25.9808L40.3936 26.4788L41.0246 26.2544L40.6895 25.3122ZM43.5124 24.3082L44.3781 23.8075L43.9614 23.0872L43.1773 23.366L43.5124 24.3082ZM45.2093 27.2419L45.8566 28.0041L46.4929 27.4638L46.0749 26.7412L45.2093 27.2419ZM42.929 29.1782L42.2817 28.416L41.7695 28.8509L41.9787 29.4895L42.929 29.1782ZM42.9289 35.9215L41.9786 35.6102L41.7694 36.2488L42.2817 36.6838L42.9289 35.9215ZM45.2093 37.858L46.0749 38.3586L46.4929 37.636L45.8566 37.0957L45.2093 37.858ZM43.5124 40.7916L43.1774 41.7338L43.9614 42.0127L44.3781 41.2923L43.5124 40.7916ZM40.6893 39.7876L41.0244 38.8454L40.3934 38.621L39.9457 39.119L40.6893 39.7876ZM34.8416 43.1596L34.637 42.1807L33.9794 42.3182L33.858 42.9789L34.8416 43.1596ZM34.3015 46.1V47.1H35.1346L35.285 46.2806L34.3015 46.1ZM30.9078 46.1L29.9242 46.2806L30.0747 47.1H30.9078V46.1ZM30.3677 43.1596L31.3513 42.9789L31.2299 42.3182L30.5723 42.1807L30.3677 43.1596ZM24.5202 39.7878L25.2638 39.1192L24.816 38.6212L24.1851 38.8456L24.5202 39.7878ZM21.6969 40.7919L20.8312 41.2926L21.2479 42.0129L22.032 41.7341L21.6969 40.7919ZM20 37.8582L19.3527 37.096L18.7164 37.6363L19.1344 38.3589L20 37.8582ZM22.2804 35.9218L22.9277 36.684L23.4399 36.2491L23.2307 35.6104L22.2804 35.9218ZM22.2803 29.178L23.2306 29.4893L23.4398 28.8507L22.9276 28.4158L22.2803 29.178ZM20 27.2416L19.1344 26.7409L18.7164 27.4635L19.3527 28.0039L20 27.2416ZM21.6969 24.308L22.032 23.3658L21.2479 23.0869L20.8312 23.8073L21.6969 24.308ZM24.52 25.312L24.1849 26.2542L24.8158 26.4786L25.2636 25.9806L24.52 25.312ZM30.3678 21.94L30.5724 22.9188L31.23 22.7814L31.3513 22.1206L30.3678 21.94ZM34.3015 18H30.9078V20H34.3015V18ZM35.825 21.7593L35.285 18.8194L33.3179 19.1806L33.8579 22.1206L35.825 21.7593ZM41.4331 24.6436C39.7815 22.8066 37.561 21.4867 35.0461 20.9611L34.6369 22.9188C36.7242 23.3551 38.5706 24.4512 39.9459 25.9808L41.4331 24.6436ZM41.0246 26.2544L43.8475 25.2504L43.1773 23.366L40.3544 24.37L41.0246 26.2544ZM42.6468 24.8089L44.3437 27.7426L46.0749 26.7412L44.3781 23.8075L42.6468 24.8089ZM44.562 26.4796L42.2817 28.416L43.5763 29.9405L45.8566 28.0041L44.562 26.4796ZM44.4646 32.5498C44.4646 31.2656 44.2594 30.0274 43.8793 28.867L41.9787 29.4895C42.2938 30.4515 42.4646 31.4797 42.4646 32.5498H44.4646ZM43.8793 36.2328C44.2594 35.0724 44.4646 33.834 44.4646 32.5498H42.4646C42.4646 33.6199 42.2938 34.6482 41.9786 35.6102L43.8793 36.2328ZM45.8566 37.0957L43.5762 35.1593L42.2817 36.6838L44.562 38.6202L45.8566 37.0957ZM44.3781 41.2923L46.0749 38.3586L44.3437 37.3573L42.6468 40.2909L44.3781 41.2923ZM40.3542 40.7298L43.1774 41.7338L43.8475 39.8494L41.0244 38.8454L40.3542 40.7298ZM35.0461 44.1384C37.561 43.6128 39.7813 42.293 41.4329 40.4562L39.9457 39.119C38.5705 40.6484 36.7242 41.7445 34.637 42.1807L35.0461 44.1384ZM35.285 46.2806L35.8251 43.3402L33.858 42.9789L33.3179 45.9193L35.285 46.2806ZM30.9078 47.1H34.3015V45.1H30.9078V47.1ZM29.3842 43.3402L29.9242 46.2806L31.8913 45.9193L31.3513 42.9789L29.3842 43.3402ZM23.7766 40.4564C25.4281 42.2932 27.6484 43.6128 30.1631 44.1384L30.5723 42.1807C28.4851 41.7445 26.639 40.6485 25.2638 39.1192L23.7766 40.4564ZM22.032 41.7341L24.8552 40.73L24.1851 38.8456L21.3618 39.8497L22.032 41.7341ZM19.1344 38.3589L20.8312 41.2926L22.5625 40.2912L20.8656 37.3575L19.1344 38.3589ZM21.6331 35.1595L19.3527 37.096L20.6473 38.6205L22.9277 36.684L21.6331 35.1595ZM20.7447 32.5498C20.7447 33.8341 20.9499 35.0726 21.3301 36.2331L23.2307 35.6104C22.9155 34.6484 22.7447 33.62 22.7447 32.5498H20.7447ZM21.33 28.8667C20.9499 30.0272 20.7447 31.2656 20.7447 32.5498H22.7447C22.7447 31.4797 22.9155 30.4513 23.2306 29.4893L21.33 28.8667ZM19.3527 28.0039L21.6331 29.9403L22.9276 28.4158L20.6473 26.4794L19.3527 28.0039ZM20.8312 23.8073L19.1344 26.7409L20.8656 27.7423L22.5625 24.8087L20.8312 23.8073ZM24.8551 24.3698L22.032 23.3658L21.3618 25.2501L24.1849 26.2542L24.8551 24.3698ZM30.1632 20.9611C27.6484 21.4867 25.428 22.8065 23.7764 24.6434L25.2636 25.9806C26.6388 24.4511 28.4851 23.3551 30.5724 22.9188L30.1632 20.9611ZM29.9242 18.8194L29.3842 21.7593L31.3513 22.1206L31.8913 19.1806L29.9242 18.8194Z" fill="#3C3C3C" mask="url(#path-4-inside-2_15407_104160)"/>
<path d="M39.5222 32.5502C39.5222 36.389 36.4042 39.5027 32.556 39.5027C28.7079 39.5027 25.5898 36.389 25.5898 32.5502C25.5898 28.7113 28.7079 25.5977 32.556 25.5977C36.4042 25.5977 39.5222 28.7113 39.5222 32.5502Z" fill="white" stroke="#3C3C3C"/>
<path d="M39 2.99997V0" stroke="#3C3C3C" stroke-width="1.3" stroke-miterlimit="1.5" stroke-linejoin="bevel"/>
<path d="M39 18V15" stroke="#3C3C3C" stroke-width="1.3" stroke-miterlimit="1.5" stroke-linejoin="bevel"/>
<path d="M36 3.80403L34.5 1.20605" stroke="#3C3C3C" stroke-width="1.3" stroke-miterlimit="1.5" stroke-linejoin="bevel"/>
<path d="M43.5 16.7943L42 14.1963" stroke="#3C3C3C" stroke-width="1.3" stroke-miterlimit="1.5" stroke-linejoin="bevel"/>
<path d="M36 14.1963L34.5 16.7943" stroke="#3C3C3C" stroke-width="1.3" stroke-miterlimit="1.5" stroke-linejoin="bevel"/>
<path d="M43.5 1.20605L42 3.80403" stroke="#3C3C3C" stroke-width="1.3" stroke-miterlimit="1.5" stroke-linejoin="bevel"/>
<path d="M33 9H30" stroke="#3C3C3C" stroke-width="1.3" stroke-miterlimit="1.5" stroke-linejoin="bevel"/>
<path d="M48 9H45" stroke="#3C3C3C" stroke-width="1.3" stroke-miterlimit="1.5" stroke-linejoin="bevel"/>
<path d="M33.803 5.99999L31.2051 4.5" stroke="#3C3C3C" stroke-width="1.3" stroke-miterlimit="1.5" stroke-linejoin="bevel"/>
<path d="M46.7933 13.5L44.1953 12" stroke="#3C3C3C" stroke-width="1.3" stroke-miterlimit="1.5" stroke-linejoin="bevel"/>
<path d="M44.1953 5.99999L46.7933 4.5" stroke="#3C3C3C" stroke-width="1.3" stroke-miterlimit="1.5" stroke-linejoin="bevel"/>
<path d="M31.2051 13.5L33.803 12" stroke="#3C3C3C" stroke-width="1.3" stroke-miterlimit="1.5" stroke-linejoin="bevel"/>
</svg>
