<?xml version="1.0" encoding="UTF-8"?>
<svg width="260px" height="260px" viewBox="0 0 260 260" version="1.1" xmlns="http://www.w3.org/2000/svg" xmlns:xlink="http://www.w3.org/1999/xlink">
    <title>5 active@1x</title>
    <g id="Under-construction" stroke="none" stroke-width="1" fill="none" fill-rule="evenodd">
        <g id="5-active" fill-rule="nonzero">
            <g id="4-copy" fill="#156EB4">
                <circle id="bg" cx="130" cy="130" r="130"></circle>
            </g>
            <path d="M80,100 C74.46875,100 70,95.53125 70,90 C70,84.46875 74.46875,80 80,80 C85.53125,80 90,84.46875 90,90 C90,95.53125 85.53125,100 80,100 Z M120,90 C120,84.46875 115.53125,80 110,80 C104.46875,80 100,84.46875 100,90 C100,95.53125 104.46875,100 110,100 C115.53125,100 120,95.53125 120,90 Z M150,90 C150,84.46875 145.53125,80 140,80 C134.46875,80 130,84.46875 130,90 C130,95.53125 134.46875,100 140,100 C145.53125,100 150,95.53125 150,90 Z M210,75 L210,185 C210,193.28125 203.28125,200 195,200 L65,200 C56.71875,200 50,193.28125 50,185 L50,75 C50,66.71875 56.71875,60 65,60 L195,60 C203.28125,60 210,66.71875 210,75 Z M200,120 L60,120 L60,185 C60,187.75 62.25,190 65,190 L195,190 C197.75,190 200,187.75 200,185 L200,120 Z M200,110 L200,75 C200,72.25 197.75,70 195,70 L65,70 C62.25,70 60,72.25 60,75 L60,110 L200,110 Z" id="Shape" fill="#FFFFFF"></path>
        </g>
    </g>
</svg>