<svg width="72" height="72" viewBox="0 0 72 72" fill="none" xmlns="http://www.w3.org/2000/svg">
<path d="M28.5 48.5H43.5V58.5H28.5V48.5Z" fill="white" stroke="#3C3C3C" stroke-miterlimit="1.5"/>
<path d="M4.5 9.5H67.5V50.5H4.5V9.5Z" fill="white" stroke="#3C3C3C" stroke-miterlimit="1.5"/>
<rect x="0.25" y="-0.25" width="31.5" height="0.5" transform="matrix(1 0 0 -1 20 58.5)" fill="white" stroke="#3C3C3C" stroke-width="0.5" stroke-miterlimit="1.5"/>
<path d="M8.97471 60.9668C8.97471 60.9668 9.16343 60.6137 9.36392 60.2402C9.66801 59.6741 9.80858 59.0369 9.77021 58.4013C9.70845 57.3599 9.61527 55.7102 9.55147 54.6133C9.50915 53.8861 9.70016 53.1615 10.0963 52.5476C10.6764 51.6478 11.5584 50.2776 12.2199 49.25C12.7304 48.4576 13.755 48.1987 14.5506 48.6581C14.5506 48.6581 17.5485 43.4656 18.9222 41.0863C19.1004 40.7776 19.3913 40.5494 19.7305 40.4541C20.0697 40.3587 20.4301 40.4037 20.7313 40.5776C21.3592 40.9401 21.5669 41.7551 21.1953 42.3987C19.9729 44.5158 17.5159 48.7781 17.5159 48.7781C17.9211 48.0762 18.8031 47.8282 19.4878 48.2236C20.1726 48.6189 20.3988 49.5067 19.9936 50.2086L19.6674 50.7735C20.1145 50.2551 20.8713 50.1057 21.4737 50.4535C22.1585 50.8488 22.3847 51.7366 21.9795 52.4385L21.6415 53.0238C22.0886 52.5053 22.8471 52.353 23.4495 52.7008C24.103 53.0781 24.3407 53.9066 24.0062 54.591L23.8728 54.8285C23.8728 54.8285 22.4454 57.301 20.959 59.8754C20.6665 60.3821 20.3 60.8462 19.8732 61.2443C19.1963 61.8786 18.1494 62.8585 17.5942 63.3805C17.3442 63.6167 17.1289 63.8846 16.9557 64.1846C16.7018 64.6243 16.3538 65.2271 16.3538 65.2271" fill="white"/>
<path d="M8.97471 60.9668C8.97471 60.9668 9.16343 60.6137 9.36392 60.2402C9.66801 59.6741 9.80858 59.0369 9.77021 58.4013C9.70845 57.3599 9.61527 55.7102 9.55147 54.6133C9.50915 53.8861 9.70016 53.1615 10.0963 52.5476C10.6764 51.6478 11.5584 50.2776 12.2199 49.25C12.7304 48.4576 13.755 48.1987 14.5506 48.6581M14.5506 48.6581C14.5506 48.6581 17.5485 43.4656 18.9222 41.0863C19.1004 40.7776 19.3913 40.5494 19.7305 40.4541C20.0697 40.3587 20.4301 40.4037 20.7313 40.5776C21.3592 40.9401 21.5669 41.7551 21.1953 42.3987C19.9729 44.5158 17.5159 48.7781 17.5159 48.7781C17.9211 48.0762 18.8031 47.8282 19.4878 48.2236C20.1726 48.6189 20.3988 49.5067 19.9936 50.2086L19.6674 50.7735C20.1145 50.2551 20.8713 50.1057 21.4737 50.4535C22.1585 50.8488 22.3847 51.7366 21.9795 52.4385L21.6415 53.0238C22.0886 52.5053 22.8471 52.353 23.4495 52.7008C24.103 53.0781 24.3407 53.9066 24.0062 54.591L23.8728 54.8285C23.8728 54.8285 22.4454 57.301 20.959 59.8754C20.6665 60.3821 20.3 60.8462 19.8732 61.2443C19.1963 61.8786 18.1494 62.8585 17.5942 63.3805C17.3442 63.6167 17.1289 63.8846 16.9557 64.1846C16.7018 64.6243 16.3538 65.2271 16.3538 65.2271M14.5506 48.6581L12.4767 52.2052" stroke="#3C3C3C" stroke-miterlimit="1.5"/>
<mask id="path-6-inside-1_897_330" fill="white">
<path fill-rule="evenodd" clip-rule="evenodd" d="M18.636 16.636C15.1213 20.1508 15.1213 25.8492 18.636 29.364L22.8789 33.6068L22.8787 33.607L35.6066 46.3349L52.5772 29.3643C56.0919 25.8496 56.0919 20.1511 52.5772 16.6364C49.0625 13.1217 43.364 13.1217 39.8493 16.6364L35.6068 20.8789L31.364 16.636C27.8492 13.1213 22.1508 13.1213 18.636 16.636Z"/>
</mask>
<path fill-rule="evenodd" clip-rule="evenodd" d="M18.636 16.636C15.1213 20.1508 15.1213 25.8492 18.636 29.364L22.8789 33.6068L22.8787 33.607L35.6066 46.3349L52.5772 29.3643C56.0919 25.8496 56.0919 20.1511 52.5772 16.6364C49.0625 13.1217 43.364 13.1217 39.8493 16.6364L35.6068 20.8789L31.364 16.636C27.8492 13.1213 22.1508 13.1213 18.636 16.636Z" fill="#FFE1C0"/>
<path d="M18.636 29.364L17.9289 30.0711L18.636 29.364ZM18.636 16.636L19.3431 17.3431V17.3431L18.636 16.636ZM22.8789 33.6068L23.586 34.3139L24.2931 33.6068L23.586 32.8997L22.8789 33.6068ZM22.8787 33.607L22.1716 32.8999L21.4645 33.607L22.1716 34.3141L22.8787 33.607ZM35.6066 46.3349L34.8995 47.042L35.6066 47.7491L36.3137 47.042L35.6066 46.3349ZM52.5772 29.3643L53.2843 30.0714L52.5772 29.3643ZM52.5772 16.6364L51.8701 17.3435V17.3435L52.5772 16.6364ZM39.8493 16.6364L39.1422 15.9293V15.9293L39.8493 16.6364ZM35.6068 20.8789L34.8997 21.586L35.6068 22.2931L36.3139 21.586L35.6068 20.8789ZM31.364 16.636L30.6569 17.3431V17.3431L31.364 16.636ZM19.3431 28.6569C16.219 25.5327 16.219 20.4673 19.3431 17.3431L17.9289 15.9289C14.0237 19.8342 14.0237 26.1658 17.9289 30.0711L19.3431 28.6569ZM23.586 32.8997L19.3431 28.6569L17.9289 30.0711L22.1718 34.3139L23.586 32.8997ZM23.5858 34.3141L23.586 34.3139L22.1718 32.8997L22.1716 32.8999L23.5858 34.3141ZM36.3137 45.6278L23.5858 32.8999L22.1716 34.3141L34.8995 47.042L36.3137 45.6278ZM51.8701 28.6572L34.8995 45.6278L36.3137 47.042L53.2843 30.0714L51.8701 28.6572ZM51.8701 17.3435C54.9943 20.4677 54.9943 25.533 51.8701 28.6572L53.2843 30.0714C57.1895 26.1662 57.1896 19.8346 53.2843 15.9293L51.8701 17.3435ZM40.5564 17.3435C43.6806 14.2193 48.7459 14.2193 51.8701 17.3435L53.2843 15.9293C49.3791 12.0241 43.0474 12.0241 39.1422 15.9293L40.5564 17.3435ZM36.3139 21.586L40.5564 17.3435L39.1422 15.9293L34.8997 20.1718L36.3139 21.586ZM30.6569 17.3431L34.8997 21.586L36.3139 20.1718L32.0711 15.9289L30.6569 17.3431ZM19.3431 17.3431C22.4673 14.219 27.5327 14.219 30.6569 17.3431L32.0711 15.9289C28.1658 12.0237 21.8342 12.0237 17.9289 15.9289L19.3431 17.3431Z" fill="#3C3C3C" mask="url(#path-6-inside-1_897_330)"/>
<path d="M25 28.9655H29.9315L31.5753 26.6483L35.5674 33.1034L39.7944 24L42.3775 28.9655H47" stroke="#3C3C3C"/>
</svg>
