<svg width="26" height="28" viewBox="0 0 26 28" fill="none" xmlns="http://www.w3.org/2000/svg">
    <path d="M5 19.3333V6C5 4.67333 5.52667 3.40167 6.465 2.465C7.40333 1.52833 8.675 1 10 1C11.3267 1 12.5983 1.52667 13.535 2.465C14.4717 3.40333 15 4.675 15 6C15 11.4283 15 19.3333 15 19.3333H13.3333C13.3333 19.3333 13.3333 10.8417 13.3333 5.98C13.3333 4.15 11.85 2.66667 10.02 2.66667C8.16834 2.66667 6.66833 4.16833 6.66833 6.01833C6.66833 10.885 6.66833 19.3333 6.66833 19.3333H5Z" fill="#EDEDED" stroke="#3C3C3C" stroke-miterlimit="1.5" stroke-linecap="square"/>
    <rect x="0.5" y="12.5" width="19" height="15" fill="#FFC382" stroke="#3C3C3C"/>
    <path d="M9.33333 20.9694C8.55667 20.6885 8 19.9311 8 19.0426C8 17.9157 8.89667 17 10 17C11.1033 17 12 17.9157 12 19.0426C12 19.9311 11.4433 20.6885 10.6667 20.9694L11.41 23.8085H8.59L9.33333 20.9694Z" fill="white" stroke="#3C3C3C" stroke-miterlimit="1.5" stroke-linecap="round" stroke-linejoin="round"/>
    <circle cx="20" cy="12" r="5.5" fill="#76B82A" stroke="#3C3C3C"/>
    <path d="M20 9L20 13" stroke="#3C3C3C"/>
    <path d="M20 14L20 15" stroke="#3C3C3C"/>
</svg>
