<svg width="24" height="24" viewBox="0 0 24 24" fill="none" xmlns="http://www.w3.org/2000/svg">
<path d="M21.4956 20.5H21.5V20.4918V20.4819V20.472V20.462V20.4519V20.4417V20.4314V20.421V20.4105V20.4V20.3894V20.3786V20.3678V20.3569V20.346V20.3349V20.3238V20.3126V20.3012V20.2899V20.2784V20.2668V20.2552V20.2435V20.2316V20.2198V20.2078V20.1957V20.1836V20.1714V20.1591V20.1467V20.1342V20.1217V20.1091V20.0964V20.0836V20.0707V20.0578V20.0448V20.0317V20.0185V20.0052V19.9919V19.9785V19.965V19.9514V19.9378V19.924V19.9102V19.8964V19.8824V19.8684V19.8543V19.8401V19.8258V19.8115V19.7971V19.7826V19.768V19.7534V19.7386V19.7239V19.709V19.6941V19.679V19.664V19.6488V19.6336V19.6183V19.6029V19.5874V19.5719V19.5563V19.5407V19.5249V19.5091V19.4932V19.4773V19.4612V19.4452V19.429V19.4128V19.3964V19.3801V19.3636V19.3471V19.3305V19.3139V19.2972V19.2804V19.2635V19.2466V19.2296V19.2125V19.1954V19.1782V19.1609V19.1436V19.1262V19.1087V19.0912V19.0736V19.056V19.0382V19.0204V19.0026V18.9847V18.9667V18.9486V18.9305V18.9123V18.8941V18.8758V18.8574V18.839V18.8205V18.8019V18.7833V18.7646V18.7458V18.727V18.7082V18.6892V18.6702V18.6512V18.6321V18.6129V18.5936V18.5743V18.555V18.5356V18.5161V18.4965V18.4769V18.4573V18.4376V18.4178V18.398V18.3781V18.3581V18.3381V18.3181V18.2979V18.2778V18.2575V18.2372V18.2169V18.1965V18.176V18.1555V18.1349V18.1143V18.0936V18.0729V18.0521V18.0312V18.0103V17.9894V17.9684V17.9473V17.9262V17.905V17.8838V17.8625V17.8412V17.8198V17.7984V17.7769V17.7554V17.7338V17.7121V17.6905V17.6687V17.6469V17.6251V17.6032V17.5812V17.5592V17.5372V17.5151V17.493V17.4708V17.4485V17.4262V17.4039V17.3815V17.3591V17.3366V17.3141V17.2915V17.2689V17.2462V17.2235V17.2007V17.1779V17.1551V17.1322V17.1092V17.0862V17.0632V17.0401V17.017V16.9938V16.9706V16.9473V16.924V16.9007V16.8773V16.8538V16.8304V16.8068V16.7833V16.7597V16.736V16.7123V16.6886V16.6648V16.641V16.6172V16.5933V16.5693V16.5453V16.5213V16.4973V16.4732V16.449V16.4248V16.4006V16.3764V16.3521V16.3277V16.3034V16.279V16.2545V16.23V16.2055V16.1809V16.1563V16.1317V16.107V16.0823V16.0576V16.0328V16.008V15.9831V15.9582V15.9333V15.9083V15.8834V15.8583V15.8333V15.8082V15.783V15.7579V15.7327V15.7074V15.6822V15.6569V15.6315V15.6062V15.5808V15.5554V15.5299V15.5044V15.4789V15.4533V15.4278V15.4021V15.3765V15.3508V15.3251V15.2994V15.2736V15.2478V15.222V15.1961V15.1703V15.1443V15.1184V15.0924V15.0664V15.0404V15.0144V14.9883V14.9622V14.936V14.9099V14.8837V14.8575V14.8312V14.805V14.7787V14.7524V14.726V14.6997V14.6733V14.6469V14.6204V14.594V14.5675V14.541V14.5144V14.4879V14.4613V14.4347V14.408V14.3814V14.3547V14.328V14.3013V14.2746V14.2478V14.221V14.1942V14.1674V14.1406V14.1137V14.0868V14.0599V14.033V14.006V13.9791V13.9521V13.9251V13.8981V13.871V13.844V13.8169V13.7898V13.7627V13.7356V13.7084V13.6813V13.6541V13.6269V13.5997V13.5725V13.5452V13.518V13.4907V13.4634V13.4361V13.4088V13.3815V13.3541V13.3267V13.2994V13.272V13.2446V13.2172V13.1897V13.1623V13.1348V13.1074V13.0799V13.0524V13.0249V12.9974V12.9698V12.9423V12.9147V12.8872V12.8596V12.832V12.8044V12.7768V12.7492V12.7216V12.694V12.6663V12.6387V12.611V12.5834V12.5557V12.528V12.5003V12.4726V12.4449V12.4172V12.3895V12.3617V12.334V12.3063V12.2785V12.2508V12.223V12.1952V12.1675V12.1397V12.1119V12.0841V12.0564V12.0286V12.0008V11.973V11.9452V11.9174V11.8896V11.8617V11.8339V11.8061V11.7783V11.7505V11.7226V11.6948V11.667V11.6392V11.6113V11.5835V11.5557V11.5278V11.5C21.5 6.556 17.2683 2.5 12 2.5C9.47176 2.5 7.05591 3.45354 5.27104 5.14283C3.49432 6.83072 2.5 9.12015 2.5 11.5C2.5 13.8791 3.49373 16.1624 5.27104 17.8572C7.04866 19.5459 9.47094 20.5 12 20.5H12.0293H12.0586H12.0879H12.1172H12.1465H12.1758H12.2051H12.2344H12.2636H12.2929H12.3222H12.3515H12.3808H12.4101H12.4393H12.4686H12.4979H12.5271H12.5564H12.5856H12.6149H12.6441H12.6734H12.7026H12.7318H12.7611H12.7903H12.8195H12.8487H12.8779H12.9071H12.9363H12.9655H12.9946H13.0238H13.0529H13.0821H13.1112H13.1404H13.1695H13.1986H13.2277H13.2568H13.2859H13.315H13.344H13.3731H13.4021H13.4312H13.4602H13.4892H13.5182H13.5472H13.5762H13.6051H13.6341H13.663H13.6919H13.7209H13.7498H13.7787H13.8075H13.8364H13.8652H13.8941H13.9229H13.9517H13.9805H14.0092H14.038H14.0667H14.0955H14.1242H14.1529H14.1815H14.2102H14.2389H14.2675H14.2961H14.3247H14.3532H14.3818H14.4103H14.4389H14.4674H14.4958H14.5243H14.5527H14.5812H14.6096H14.6379H14.6663H14.6946H14.723H14.7513H14.7795H14.8078H14.836H14.8642H14.8924H14.9206H14.9487H14.9769H15.005H15.033H15.0611H15.0891H15.1171H15.1451H15.1731H15.201H15.2289H15.2568H15.2847H15.3125H15.3403H15.3681H15.3958H15.4236H15.4513H15.4789H15.5066H15.5342H15.5618H15.5893H15.6169H15.6444H15.6719H15.6993H15.7267H15.7541H15.7815H15.8088H15.8361H15.8634H15.8907H15.9179H15.9451H15.9722H15.9993H16.0264H16.0535H16.0805H16.1075H16.1345H16.1614H16.1883H16.2152H16.242H16.2688H16.2956H16.3223H16.349H16.3757H16.4023H16.4289H16.4554H16.482H16.5085H16.5349H16.5613H16.5877H16.6141H16.6404H16.6666H16.6929H16.7191H16.7452H16.7714H16.7974H16.8235H16.8495H16.8755H16.9014H16.9273H16.9532H16.979H17.0047H17.0305H17.0562H17.0818H17.1074H17.133H17.1586H17.1841H17.2095H17.2349H17.2603H17.2856H17.3109H17.3361H17.3613H17.3865H17.4116H17.4367H17.4617H17.4867H17.5116H17.5365H17.5614H17.5862H17.6109H17.6356H17.6603H17.6849H17.7095H17.734H17.7585H17.783H17.8073H17.8317H17.856H17.8802H17.9044H17.9286H17.9527H17.9768H18.0008H18.0247H18.0486H18.0725H18.0963H18.1201H18.1438H18.1675H18.1911H18.2146H18.2382H18.2616H18.285H18.3084H18.3317H18.3549H18.3782H18.4013H18.4244H18.4474H18.4704H18.4934H18.5163H18.5391H18.5619H18.5846H18.6073H18.6299H18.6524H18.675H18.6974H18.7198H18.7421H18.7644H18.7867H18.8088H18.8309H18.853H18.875H18.8969H18.9188H18.9407H18.9624H18.9841H19.0058H19.0274H19.0489H19.0704H19.0918H19.1132H19.1345H19.1557H19.1769H19.198H19.2191H19.2401H19.261H19.2819H19.3027H19.3235H19.3442H19.3648H19.3853H19.4059H19.4263H19.4467H19.467H19.4872H19.5074H19.5275H19.5476H19.5676H19.5875H19.6074H19.6272H19.6469H19.6666H19.6862H19.7057H19.7252H19.7446H19.764H19.7832H19.8024H19.8216H19.8406H19.8596H19.8786H19.8975H19.9162H19.935H19.9536H19.9722H19.9908H20.0092H20.0276H20.0459H20.0641H20.0823H20.1004H20.1184H20.1364H20.1543H20.1721H20.1899H20.2075H20.2251H20.2427H20.2601H20.2775H20.2948H20.312H20.3292H20.3463H20.3633H20.3803H20.3971H20.4139H20.4306H20.4473H20.4638H20.4803H20.4967H20.5131H20.5294H20.5455H20.5616H20.5777H20.5936H20.6095H20.6253H20.641H20.6567H20.6723H20.6877H20.7032H20.7185H20.7337H20.7489H20.764H20.779H20.794H20.8088H20.8236H20.8383H20.8529H20.8674H20.8819H20.8962H20.9105H20.9247H20.9388H20.9529H20.9668H20.9807H20.9945H21.0082H21.0218H21.0354H21.0488H21.0622H21.0755H21.0887H21.1018H21.1148H21.1278H21.1406H21.1534H21.1661H21.1787H21.1912H21.2036H21.216H21.2282H21.2404H21.2525H21.2645H21.2764H21.2882H21.2999H21.3116H21.3231H21.3346H21.3459H21.3572H21.3684H21.3795H21.3905H21.4014H21.4123H21.423H21.4337H21.4442H21.4547H21.465H21.4753H21.4855H21.4956Z" stroke="#3C3C3C" stroke-miterlimit="1.5" stroke-linecap="square"/>
<circle cx="8" cy="11.5" r="1" fill="#3C3C3C"/>
<circle cx="12" cy="11.5" r="1" fill="#3C3C3C"/>
<circle cx="16" cy="11.5" r="1" fill="#3C3C3C"/>
</svg>
