<svg width="24" height="24" viewBox="0 0 24 24" fill="none" xmlns="http://www.w3.org/2000/svg">
<path fill-rule="evenodd" clip-rule="evenodd" d="M14.0144 3.7914L13.8602 2.97754H13.0319H10.9594H10.1311L9.97687 3.7914L9.76614 4.90368C8.64655 5.23557 7.6352 5.8109 6.79837 6.56749L5.65939 6.17478L4.89107 5.90987L4.47467 6.6078L3.43843 8.34463L2.99805 9.08275L3.66162 9.62903L4.55072 10.361C4.42822 10.8887 4.36366 11.4373 4.36366 11.9996C4.36366 12.5621 4.42825 13.1107 4.55079 13.6386L3.66209 14.3702L2.99852 14.9165L3.4389 15.6546L4.47514 17.3914L4.89154 18.0894L5.65987 17.8244L6.79849 17.4319C7.6353 18.1884 8.6466 18.7637 9.76614 19.0955L9.97687 20.2078L10.1311 21.0217H10.9594H13.0319H13.8602L14.0144 20.2078L14.2251 19.0955C15.3444 18.7637 16.3555 18.1886 17.1923 17.4322L18.3298 17.8244L19.0981 18.0894L19.5145 17.3914L20.5507 15.6546L20.9911 14.9165L20.3276 14.3702L19.4401 13.6396C19.5628 13.1115 19.6275 12.5625 19.6275 11.9996C19.6275 11.4369 19.5629 10.888 19.4402 10.3599L20.328 9.62902L20.9916 9.08274L20.5512 8.34462L19.515 6.60779L19.0986 5.90986L18.3303 6.17477L17.1924 6.5671C16.3557 5.81073 15.3445 5.23555 14.2251 4.90371L14.0144 3.7914ZM7.05821 7.71485C7.98246 6.7182 9.22428 6.00297 10.6296 5.71823L10.9594 3.97754H13.0319L13.3617 5.71825C14.7668 6.00296 16.0084 6.71803 16.9326 7.71445L18.6562 7.12015L19.6925 8.85698L18.3003 10.0031C18.5127 10.6315 18.6275 11.3026 18.6275 11.9996C18.6275 12.6968 18.5126 13.368 18.3002 13.9965L19.692 15.1422L18.6557 16.8791L16.9325 16.2849C16.0083 17.2812 14.7667 17.9963 13.3617 18.281L13.0319 20.0217H10.9594L10.6296 18.281C9.22433 17.9963 7.98256 17.2811 7.05832 16.2845L5.33391 16.8791L4.29767 15.1422L5.69064 13.9955C5.47842 13.3673 5.36366 12.6964 5.36366 11.9996C5.36366 11.3029 5.47838 10.6322 5.69054 10.0041L4.2972 8.857L5.33344 7.12017L7.05821 7.71485ZM15.6398 11.9996C15.6398 13.8971 14.0396 15.492 11.9947 15.492C9.94988 15.492 8.3497 13.8971 8.3497 11.9996C8.3497 10.1021 9.94988 8.50725 11.9947 8.50725C14.0396 8.50725 15.6398 10.1021 15.6398 11.9996ZM16.6398 11.9996C16.6398 14.4807 14.5601 16.492 11.9947 16.492C9.42936 16.492 7.3497 14.4807 7.3497 11.9996C7.3497 9.51855 9.42936 7.50725 11.9947 7.50725C14.5601 7.50725 16.6398 9.51855 16.6398 11.9996Z" fill="#3C3C3C"/>
</svg>
