<svg width="72" height="72" viewBox="0 0 72 72" fill="none" xmlns="http://www.w3.org/2000/svg">
<mask id="path-1-inside-1_935_353" fill="white">
<path fill-rule="evenodd" clip-rule="evenodd" d="M67.4384 68C67.8071 66.0565 68 64.0508 68 62C68 44.3269 53.6731 30 36 30C18.3269 30 4 44.3269 4 62C4 64.0508 4.19291 66.0565 4.56158 68H67.4384Z"/>
</mask>
<path fill-rule="evenodd" clip-rule="evenodd" d="M67.4384 68C67.8071 66.0565 68 64.0508 68 62C68 44.3269 53.6731 30 36 30C18.3269 30 4 44.3269 4 62C4 64.0508 4.19291 66.0565 4.56158 68H67.4384Z" fill="white"/>
<path d="M67.4384 68V69C67.9188 69 68.3314 68.6584 68.4209 68.1864L67.4384 68ZM4.56158 68L3.5791 68.1864C3.66864 68.6584 4.08117 69 4.56158 69V68ZM67 62C67 63.9879 66.813 65.9313 66.4559 67.8136L68.4209 68.1864C68.8012 66.1817 69 64.1136 69 62H67ZM36 31C53.1208 31 67 44.8792 67 62H69C69 43.7746 54.2254 29 36 29V31ZM5 62C5 44.8792 18.8792 31 36 31V29C17.7746 29 3 43.7746 3 62H5ZM5.54406 67.8136C5.18699 65.9313 5 63.9879 5 62H3C3 64.1136 3.19884 66.1817 3.5791 68.1864L5.54406 67.8136ZM4.56158 69H67.4384V67H4.56158V69Z" fill="#3C3C3C" mask="url(#path-1-inside-1_935_353)"/>
<mask id="path-3-inside-2_935_353" fill="white">
<path fill-rule="evenodd" clip-rule="evenodd" d="M42.2454 68C43.3433 66.6304 44 64.8919 44 63C44 58.5817 40.4183 55 36 55C31.5817 55 28 58.5817 28 63C28 64.8919 28.6567 66.6304 29.7546 68H42.2454Z"/>
</mask>
<path fill-rule="evenodd" clip-rule="evenodd" d="M42.2454 68C43.3433 66.6304 44 64.8919 44 63C44 58.5817 40.4183 55 36 55C31.5817 55 28 58.5817 28 63C28 64.8919 28.6567 66.6304 29.7546 68H42.2454Z" fill="#FFC281"/>
<path d="M42.2454 68V69C42.5488 69 42.8358 68.8622 43.0256 68.6255L42.2454 68ZM29.7546 68L28.9744 68.6255C29.1642 68.8622 29.4512 69 29.7546 69V68ZM43 63C43 64.6564 42.4259 66.1759 41.4651 67.3745L43.0256 68.6255C44.2606 67.0849 45 65.1274 45 63H43ZM36 56C39.866 56 43 59.134 43 63H45C45 58.0294 40.9706 54 36 54V56ZM29 63C29 59.134 32.134 56 36 56V54C31.0294 54 27 58.0294 27 63H29ZM30.5349 67.3745C29.5741 66.1759 29 64.6564 29 63H27C27 65.1274 27.7394 67.0849 28.9744 68.6255L30.5349 67.3745ZM29.7546 69H42.2454V67H29.7546V69Z" fill="#3C3C3C" mask="url(#path-3-inside-2_935_353)"/>
<path d="M16.5 57C16.5 57.8284 15.8284 58.5 15 58.5C14.1716 58.5 13.5 57.8284 13.5 57C13.5 56.1716 14.1716 55.5 15 55.5C15.8284 55.5 16.5 56.1716 16.5 57Z" fill="#76B82A" stroke="#3C3C3C" stroke-miterlimit="1.5" stroke-linecap="round" stroke-linejoin="round"/>
<path d="M25.5 47C25.5 47.8284 24.8284 48.5 24 48.5C23.1716 48.5 22.5 47.8284 22.5 47C22.5 46.1716 23.1716 45.5 24 45.5C24.8284 45.5 25.5 46.1716 25.5 47Z" fill="#76B82A" stroke="#3C3C3C" stroke-miterlimit="1.5" stroke-linecap="round" stroke-linejoin="round"/>
<path d="M37.5 42C37.5 42.8284 36.8284 43.5 36 43.5C35.1716 43.5 34.5 42.8284 34.5 42C34.5 41.1716 35.1716 40.5 36 40.5C36.8284 40.5 37.5 41.1716 37.5 42Z" fill="#76B82A" stroke="#3C3C3C" stroke-miterlimit="1.5" stroke-linecap="round" stroke-linejoin="round"/>
<path d="M58.5 57C58.5 57.8284 57.8284 58.5 57 58.5C56.1716 58.5 55.5 57.8284 55.5 57C55.5 56.1716 56.1716 55.5 57 55.5C57.8284 55.5 58.5 56.1716 58.5 57Z" fill="#76B82A" stroke="#3C3C3C" stroke-miterlimit="1.5" stroke-linecap="round" stroke-linejoin="round"/>
<line x1="40.617" y1="57.6786" x2="48.9732" y2="47.72" stroke="#3C3C3C"/>
<path d="M52.4472 43.8925L51.3949 52.1474L44.5005 46.3623L52.4472 43.8925Z" fill="#3C3C3C"/>
<mask id="path-11-inside-3_935_353" fill="white">
<path fill-rule="evenodd" clip-rule="evenodd" d="M61 16V4L49 20H56V32L68 16H61Z"/>
</mask>
<path fill-rule="evenodd" clip-rule="evenodd" d="M61 16V4L49 20H56V32L68 16H61Z" fill="#76B82A"/>
<path d="M61 4H62L60.2 3.4L61 4ZM61 16H60V17H61V16ZM49 20L48.2 19.4L49 21V20ZM56 20H57V19H56V20ZM56 32H55L56.8 32.6L56 32ZM68 16L68.8 16.6L68 15V16ZM60 4V16H62V4H60ZM49.8 20.6L61.8 4.6L60.2 3.4L48.2 19.4L49.8 20.6ZM56 19H49V21H56V19ZM57 32V20H55V32H57ZM67.2 15.4L55.2 31.4L56.8 32.6L68.8 16.6L67.2 15.4ZM61 17H68V15H61V17Z" fill="#3C3C3C" mask="url(#path-11-inside-3_935_353)"/>
</svg>
