<svg width="24" height="24" viewBox="0 0 24 24" fill="none" xmlns="http://www.w3.org/2000/svg">
<path d="M11 12.5C11 11.5 11.9999 11.5 11.9999 11.5" stroke="#3C3C3C" stroke-linecap="round" stroke-linejoin="round"/>
<path d="M14.541 12.5C14.541 13.8807 13.4217 15 12.041 15C10.6603 15 9.54099 13.8807 9.54099 12.5C9.54099 11.1193 10.6603 10 12.041 10C13.4217 10 14.541 11.1193 14.541 12.5Z" stroke="#3C3C3C"/>
<path d="M5.02195 13.0506C4.84797 12.829 4.70877 12.6406 4.60808 12.5C4.70877 12.3594 4.84797 12.171 5.02195 11.9494C5.41614 11.4473 5.98568 10.7791 6.68748 10.1125C8.11016 8.76131 9.98916 7.5 12 7.5C14.0108 7.5 15.8898 8.76131 17.3125 10.1125C18.0143 10.7791 18.5839 11.4473 18.978 11.9494C19.152 12.171 19.2912 12.3594 19.3919 12.5C19.2912 12.6406 19.152 12.829 18.978 13.0506C18.5839 13.5527 18.0143 14.2209 17.3125 14.8875C15.8898 16.2387 14.0108 17.5 12 17.5C9.98916 17.5 8.11016 16.2387 6.68748 14.8875C5.98568 14.2209 5.41614 13.5527 5.02195 13.0506Z" stroke="#3C3C3C" stroke-linejoin="round"/>
</svg>
