<svg width="158" height="122" viewBox="0 0 158 122" fill="none" xmlns="http://www.w3.org/2000/svg">
<path d="M146.861 26.3657H138.411V34.8152H146.861V26.3657Z" fill="#DFCBE1" stroke="#3C3C3C" stroke-width="0.986822" stroke-miterlimit="1.5" stroke-linecap="square"/>
<path d="M146.861 43.2646H138.411V51.7141H146.861V43.2646Z" fill="#76B82A" stroke="#3C3C3C" stroke-width="0.986822" stroke-miterlimit="1.5" stroke-linecap="square"/>
<path d="M146.861 60.1636H138.411V68.6131H146.861V60.1636Z" fill="#FFC382" stroke="#3C3C3C" stroke-width="0.986822" stroke-miterlimit="1.5" stroke-linecap="square"/>
<path fill-rule="evenodd" clip-rule="evenodd" d="M148.255 43.2222L147.211 42.1787C147.211 42.1787 144.017 45.3684 142.737 46.6527C142.45 46.94 142.45 47.409 142.737 47.6962C143.024 47.9835 143.493 47.9835 143.785 47.6962C145.061 46.4119 148.255 43.2222 148.255 43.2222Z" fill="white"/>
<path d="M148.255 43.2222L147.211 42.1787C147.211 42.1787 144.017 45.3684 142.737 46.6527C142.45 46.94 142.45 47.409 142.737 47.6962C143.024 47.9835 143.493 47.9835 143.785 47.6962C145.061 46.4119 148.255 43.2222 148.255 43.2222Z" stroke="#3C3C3C" stroke-width="0.986822" stroke-miterlimit="1.5"/>
<path d="M146.464 40.5441L146.016 40.9922L149.451 44.4276L149.899 43.9795L146.464 40.5441Z" fill="#3C3C3C"/>
<path d="M146.464 40.5441L146.016 40.9922L149.451 44.4276L149.899 43.9795L146.464 40.5441Z" stroke="#3C3C3C" stroke-width="0.986822" stroke-miterlimit="1.5"/>
<path fill-rule="evenodd" clip-rule="evenodd" d="M151.157 40.9197C151.618 40.4592 151.618 39.7114 151.157 39.2509C150.71 38.8031 149.987 38.8031 149.539 39.2509C148.568 40.2226 147.064 41.7308 147.064 41.7308L148.707 43.3743C148.703 43.3701 150.181 41.8914 151.157 40.9197Z" fill="#3C3C3C"/>
<path d="M151.157 40.9197C151.618 40.4592 151.618 39.7114 151.157 39.2509C150.71 38.8031 149.987 38.8031 149.539 39.2509C148.568 40.2226 147.064 41.7308 147.064 41.7308L148.707 43.3743C148.703 43.3701 150.181 41.8914 151.157 40.9197Z" stroke="#3C3C3C" stroke-width="0.986822" stroke-miterlimit="1.5" stroke-linecap="round" stroke-linejoin="round"/>
<path d="M20.1178 9.46631H3.21881V17.9158H20.1178V9.46631Z" fill="white"/>
<path d="M20.1178 9.46631H3.21881V17.9158H20.1178V9.46631Z" stroke="#C6C6C6" stroke-width="0.986822" stroke-miterlimit="1.5" stroke-linecap="square"/>
<path d="M20.1178 1.01709H3.21881V9.46661H20.1178V1.01709Z" fill="white"/>
<path d="M20.1178 1.01709H3.21881V9.46661H20.1178V1.01709Z" stroke="#C6C6C6" stroke-width="0.986822" stroke-miterlimit="1.5" stroke-linecap="square"/>
<path d="M20.1184 1.01706H15.8936V5.24182H20.1184V1.01706Z" fill="white"/>
<path d="M20.1184 1.01706H15.8936V5.24182H20.1184V1.01706Z" stroke="#C6C6C6" stroke-width="0.986822" stroke-miterlimit="1.5" stroke-linecap="square"/>
<path d="M15.8938 1.01709H11.669V5.24185H15.8938V1.01709Z" fill="white"/>
<path d="M15.8938 1.01709H11.669V5.24185H15.8938V1.01709Z" stroke="#C6C6C6" stroke-width="0.986822" stroke-miterlimit="1.5" stroke-linecap="square"/>
<path d="M20.1184 5.24173H15.8936V9.46649H20.1184V5.24173Z" fill="white"/>
<path d="M20.1184 5.24173H15.8936V9.46649H20.1184V5.24173Z" stroke="#C6C6C6" stroke-width="0.986822" stroke-miterlimit="1.5" stroke-linecap="square"/>
<path d="M15.8938 5.2417H11.669V9.46646H15.8938V5.2417Z" fill="white"/>
<path d="M15.8938 5.2417H11.669V9.46646H15.8938V5.2417Z" stroke="#C6C6C6" stroke-width="0.986822" stroke-miterlimit="1.5" stroke-linecap="square"/>
<path d="M11.6683 9.46631H3.21881V17.9158H11.6683V9.46631Z" fill="white"/>
<path d="M11.6683 9.46631H3.21881V17.9158H11.6683V9.46631Z" stroke="#C6C6C6" stroke-width="0.986822" stroke-miterlimit="1.5" stroke-linecap="square"/>
<path d="M11.6683 1.01709H3.21881V9.46661H11.6683V1.01709Z" fill="white"/>
<path d="M11.6683 1.01709H3.21881V9.46661H11.6683V1.01709Z" stroke="#C6C6C6" stroke-width="0.986822" stroke-miterlimit="1.5" stroke-linecap="square"/>
<path d="M11.6682 1.01709H7.44342V5.24185H11.6682V1.01709Z" fill="white"/>
<path d="M11.6682 1.01709H7.44342V5.24185H11.6682V1.01709Z" stroke="#C6C6C6" stroke-width="0.986822" stroke-miterlimit="1.5" stroke-linecap="square"/>
<path d="M11.6682 9.46631H7.44342V13.6911H11.6682V9.46631Z" fill="white"/>
<path d="M11.6682 9.46631H7.44342V13.6911H11.6682V9.46631Z" stroke="#C6C6C6" stroke-width="0.986822" stroke-miterlimit="1.5" stroke-linecap="square"/>
<path d="M20.1184 9.46631H15.8936V13.6911H20.1184V9.46631Z" fill="white"/>
<path d="M20.1184 9.46631H15.8936V13.6911H20.1184V9.46631Z" stroke="#C6C6C6" stroke-width="0.986822" stroke-miterlimit="1.5" stroke-linecap="square"/>
<path d="M7.44357 1.01709H3.21881V5.24185H7.44357V1.01709Z" fill="white"/>
<path d="M7.44357 1.01709H3.21881V5.24185H7.44357V1.01709Z" stroke="#C6C6C6" stroke-width="0.986822" stroke-miterlimit="1.5" stroke-linecap="square"/>
<path d="M7.44357 9.46631H3.21881V13.6911H7.44357V9.46631Z" fill="white"/>
<path d="M7.44357 9.46631H3.21881V13.6911H7.44357V9.46631Z" stroke="#C6C6C6" stroke-width="0.986822" stroke-miterlimit="1.5" stroke-linecap="square"/>
<path d="M15.8938 9.46631H11.669V13.6911H15.8938V9.46631Z" fill="white"/>
<path d="M15.8938 9.46631H11.669V13.6911H15.8938V9.46631Z" stroke="#C6C6C6" stroke-width="0.986822" stroke-miterlimit="1.5" stroke-linecap="square"/>
<path d="M11.6682 5.2417H7.44342V9.46646H11.6682V5.2417Z" fill="white"/>
<path d="M11.6682 5.2417H7.44342V9.46646H11.6682V5.2417Z" stroke="#C6C6C6" stroke-width="0.986822" stroke-miterlimit="1.5" stroke-linecap="square"/>
<path d="M11.6682 13.6909H7.44342V17.9157H11.6682V13.6909Z" fill="white"/>
<path d="M11.6682 13.6909H7.44342V17.9157H11.6682V13.6909Z" stroke="#C6C6C6" stroke-width="0.986822" stroke-miterlimit="1.5" stroke-linecap="square"/>
<path d="M20.1184 13.6909H15.8936V17.9157H20.1184V13.6909Z" fill="white"/>
<path d="M20.1184 13.6909H15.8936V17.9157H20.1184V13.6909Z" stroke="#C6C6C6" stroke-width="0.986822" stroke-miterlimit="1.5" stroke-linecap="square"/>
<path d="M7.44357 5.2417H3.21881V9.46646H7.44357V5.2417Z" fill="white"/>
<path d="M7.44357 5.2417H3.21881V9.46646H7.44357V5.2417Z" stroke="#C6C6C6" stroke-width="0.986822" stroke-miterlimit="1.5" stroke-linecap="square"/>
<path d="M7.44357 13.6909H3.21881V17.9157H7.44357V13.6909Z" fill="white"/>
<path d="M7.44357 13.6909H3.21881V17.9157H7.44357V13.6909Z" stroke="#C6C6C6" stroke-width="0.986822" stroke-miterlimit="1.5" stroke-linecap="square"/>
<path d="M15.8938 13.6909H11.669V17.9157H15.8938V13.6909Z" fill="white"/>
<path d="M15.8938 13.6909H11.669V17.9157H15.8938V13.6909Z" stroke="#C6C6C6" stroke-width="0.986822" stroke-miterlimit="1.5" stroke-linecap="square"/>
<path d="M79.2649 17.916H20.1309V34.8151H79.2649V17.916Z" fill="#EDEDED" stroke="#3C3C3C" stroke-width="0.986822" stroke-miterlimit="1.5" stroke-linecap="square"/>
<path d="M129.962 60.1636H79.2647V102.411H129.962V60.1636Z" fill="white" stroke="#3C3C3C" stroke-width="0.986822" stroke-miterlimit="1.5" stroke-linecap="square"/>
<path d="M129.963 81.2871H79.2657V102.411H129.963V81.2871Z" fill="white" stroke="#3C3C3C" stroke-width="0.986822" stroke-miterlimit="1.5" stroke-linecap="square"/>
<path d="M129.962 70.7256H79.2647V81.2875H129.962V70.7256Z" fill="white" stroke="#3C3C3C" stroke-width="0.986822" stroke-miterlimit="1.5" stroke-linecap="square"/>
<path d="M129.963 81.2871H79.2657V91.849H129.963V81.2871Z" fill="white" stroke="#3C3C3C" stroke-width="0.986822" stroke-miterlimit="1.5" stroke-linecap="square"/>
<path d="M129.962 9.46631H79.2647V60.1634H129.962V9.46631Z" fill="#EDEDED" stroke="#3C3C3C" stroke-width="0.986822" stroke-miterlimit="1.5" stroke-linecap="square"/>
<path d="M79.2658 17.916H20.1192V22.1408H79.2658V17.916Z" fill="#3C3C3C"/>
<path d="M79.2658 17.916H20.1192V22.1408H79.2658V17.916Z" stroke="#3C3C3C" stroke-width="0.986822" stroke-miterlimit="1.5" stroke-linecap="round" stroke-linejoin="round"/>
<path d="M129.962 9.46631H79.2647V13.6911H129.962V9.46631Z" fill="#3C3C3C"/>
<path d="M129.962 9.46631H79.2647V13.6911H129.962V9.46631Z" stroke="#3C3C3C" stroke-width="0.986822" stroke-miterlimit="1.5" stroke-linecap="round" stroke-linejoin="round"/>
<path d="M83.4898 13.269C84.4231 13.269 85.1797 12.5124 85.1797 11.5791C85.1797 10.6458 84.4231 9.88916 83.4898 9.88916C82.5565 9.88916 81.7999 10.6458 81.7999 11.5791C81.7999 12.5124 82.5565 13.269 83.4898 13.269Z" fill="white"/>
<path d="M83.4898 13.269C84.4231 13.269 85.1797 12.5124 85.1797 11.5791C85.1797 10.6458 84.4231 9.88916 83.4898 9.88916C82.5565 9.88916 81.7999 10.6458 81.7999 11.5791C81.7999 12.5124 82.5565 13.269 83.4898 13.269Z" stroke="#3C3C3C" stroke-width="0.986822" stroke-miterlimit="1.5" stroke-linecap="square"/>
<path d="M87.7144 13.269C88.6477 13.269 89.4043 12.5124 89.4043 11.5791C89.4043 10.6458 88.6477 9.88916 87.7144 9.88916C86.7811 9.88916 86.0245 10.6458 86.0245 11.5791C86.0245 12.5124 86.7811 13.269 87.7144 13.269Z" fill="white"/>
<path d="M87.7144 13.269C88.6477 13.269 89.4043 12.5124 89.4043 11.5791C89.4043 10.6458 88.6477 9.88916 87.7144 9.88916C86.7811 9.88916 86.0245 10.6458 86.0245 11.5791C86.0245 12.5124 86.7811 13.269 87.7144 13.269Z" stroke="#3C3C3C" stroke-width="0.986822" stroke-miterlimit="1.5" stroke-linecap="square"/>
<path d="M79.2645 34.8149H3.21881V110.861H79.2645V34.8149Z" fill="white" stroke="#3C3C3C" stroke-width="0.759094" stroke-miterlimit="1.5" stroke-linecap="square"/>
<path d="M56.7845 83.1589L41.1402 45.8965L25.496 83.1589H56.7845ZM60.4094 91.8492H21.8669L13.8906 110.861H3.21881L36.0621 34.8149H46.3198L79.2645 110.861H68.3857L60.4094 91.8492Z" fill="#76B82A" stroke="#3C3C3C" stroke-width="0.986822" stroke-miterlimit="1.5" stroke-linecap="square"/>
<path d="M104.613 45.3772C110.446 45.3772 115.175 40.6485 115.175 34.8153C115.175 28.9821 110.446 24.2534 104.613 24.2534C98.7796 24.2534 94.0508 28.9821 94.0508 34.8153C94.0508 40.6485 98.7796 45.3772 104.613 45.3772Z" fill="white" stroke="#3C3C3C" stroke-width="0.986822" stroke-miterlimit="1.5" stroke-linecap="square"/>
<path d="M104.613 29.5342V40.0961" stroke="#3C3C3C" stroke-width="0.986822" stroke-miterlimit="1.5" stroke-linecap="square"/>
<path d="M109.894 34.8149H99.3321" stroke="#3C3C3C" stroke-width="0.986822" stroke-miterlimit="1.5" stroke-linecap="square"/>
<path d="M24.3433 21.7181C25.2766 21.7181 26.0332 20.9615 26.0332 20.0282C26.0332 19.0949 25.2766 18.3383 24.3433 18.3383C23.41 18.3383 22.6534 19.0949 22.6534 20.0282C22.6534 20.9615 23.41 21.7181 24.3433 21.7181Z" fill="white"/>
<path d="M24.3433 21.7181C25.2766 21.7181 26.0332 20.9615 26.0332 20.0282C26.0332 19.0949 25.2766 18.3383 24.3433 18.3383C23.41 18.3383 22.6534 19.0949 22.6534 20.0282C22.6534 20.9615 23.41 21.7181 24.3433 21.7181Z" stroke="#3C3C3C" stroke-width="0.986822" stroke-miterlimit="1.5" stroke-linecap="square"/>
<path fill-rule="evenodd" clip-rule="evenodd" d="M28.5669 18.3384C29.5006 18.3384 30.2568 19.0946 30.2568 20.0283C30.2568 20.962 29.5006 21.7182 28.5669 21.7182C27.6332 21.7182 26.877 20.962 26.877 20.0283C26.877 19.0946 27.6332 18.3384 28.5669 18.3384Z" fill="white"/>
<path d="M28.5669 18.3384C29.5006 18.3384 30.2568 19.0946 30.2568 20.0283C30.2568 20.962 29.5006 21.7182 28.5669 21.7182C27.6332 21.7182 26.877 20.962 26.877 20.0283C26.877 19.0946 27.6332 18.3384 28.5669 18.3384Z" stroke="#3C3C3C" stroke-width="0.986822" stroke-miterlimit="1.5" stroke-linecap="square"/>
<path d="M3.07571 112.551C4.00901 112.551 4.76561 111.794 4.76561 110.861C4.76561 109.927 4.00901 109.171 3.07571 109.171C2.1424 109.171 1.3858 109.927 1.3858 110.861C1.3858 111.794 2.1424 112.551 3.07571 112.551Z" fill="#EDEDED"/>
<path d="M3.07571 112.551C4.00901 112.551 4.76561 111.794 4.76561 110.861C4.76561 109.927 4.00901 109.171 3.07571 109.171C2.1424 109.171 1.3858 109.927 1.3858 110.861C1.3858 111.794 2.1424 112.551 3.07571 112.551Z" fill="white" stroke="#3C3C3C" stroke-width="0.986822" stroke-miterlimit="1.5" stroke-linecap="square"/>
<path d="M3.07571 36.5049C4.00901 36.5049 4.76561 35.7483 4.76561 34.815C4.76561 33.8817 4.00901 33.1251 3.07571 33.1251C2.1424 33.1251 1.3858 33.8817 1.3858 34.815C1.3858 35.7483 2.1424 36.5049 3.07571 36.5049Z" fill="#EDEDED"/>
<path d="M3.07571 36.5049C4.00901 36.5049 4.76561 35.7483 4.76561 34.815C4.76561 33.8817 4.00901 33.1251 3.07571 33.1251C2.1424 33.1251 1.3858 33.8817 1.3858 34.815C1.3858 35.7483 2.1424 36.5049 3.07571 36.5049Z" fill="white" stroke="#3C3C3C" stroke-width="0.986822" stroke-miterlimit="1.5" stroke-linecap="square"/>
<path d="M79.2642 36.5048C80.1975 36.5048 80.9541 35.7482 80.9541 34.8149C80.9541 33.8816 80.1975 33.125 79.2642 33.125C78.3309 33.125 77.5743 33.8816 77.5743 34.8149C77.5743 35.7482 78.3309 36.5048 79.2642 36.5048Z" fill="white"/>
<path d="M79.2642 36.5048C80.1975 36.5048 80.9541 35.7482 80.9541 34.8149C80.9541 33.8816 80.1975 33.125 79.2642 33.125C78.3309 33.125 77.5743 33.8816 77.5743 34.8149C77.5743 35.7482 78.3309 36.5048 79.2642 36.5048Z" stroke="#3C3C3C" stroke-width="0.986822" stroke-miterlimit="1.5" stroke-linecap="square"/>
<path d="M79.2642 112.551C80.1975 112.551 80.9541 111.794 80.9541 110.861C80.9541 109.927 80.1975 109.171 79.2642 109.171C78.3309 109.171 77.5743 109.927 77.5743 110.861C77.5743 111.794 78.3309 112.551 79.2642 112.551Z" fill="white"/>
<path d="M79.2642 112.551C80.1975 112.551 80.9541 111.794 80.9541 110.861C80.9541 109.927 80.1975 109.171 79.2642 109.171C78.3309 109.171 77.5743 109.927 77.5743 110.861C77.5743 111.794 78.3309 112.551 79.2642 112.551Z" stroke="#3C3C3C" stroke-width="0.986822" stroke-miterlimit="1.5" stroke-linecap="square"/>
<path d="M144.748 3.12947V1.01709" stroke="#3C3C3C" stroke-width="0.986822" stroke-miterlimit="1.5" stroke-linejoin="bevel"/>
<path d="M144.748 13.691V11.5786" stroke="#3C3C3C" stroke-width="0.986822" stroke-miterlimit="1.5" stroke-linejoin="bevel"/>
<path d="M142.636 3.69553L141.58 1.86621" stroke="#3C3C3C" stroke-width="0.986822" stroke-miterlimit="1.5" stroke-linejoin="bevel"/>
<path d="M147.918 12.842L146.861 11.0127" stroke="#3C3C3C" stroke-width="0.986822" stroke-miterlimit="1.5" stroke-linejoin="bevel"/>
<path d="M142.636 11.0127L141.58 12.842" stroke="#3C3C3C" stroke-width="0.986822" stroke-miterlimit="1.5" stroke-linejoin="bevel"/>
<path d="M147.918 1.86621L146.861 3.69553" stroke="#3C3C3C" stroke-width="0.986822" stroke-miterlimit="1.5" stroke-linejoin="bevel"/>
<path d="M140.523 7.35406H138.411" stroke="#3C3C3C" stroke-width="0.986822" stroke-miterlimit="1.5" stroke-linejoin="bevel"/>
<path d="M151.086 7.354H148.974" stroke="#3C3C3C" stroke-width="0.986822" stroke-miterlimit="1.5" stroke-linejoin="bevel"/>
<path d="M141.09 5.24174L139.261 4.18555" stroke="#3C3C3C" stroke-width="0.986822" stroke-miterlimit="1.5" stroke-linejoin="bevel"/>
<path d="M150.238 10.5225L148.408 9.46631" stroke="#3C3C3C" stroke-width="0.986822" stroke-miterlimit="1.5" stroke-linejoin="bevel"/>
<path d="M148.408 5.24174L150.238 4.18555" stroke="#3C3C3C" stroke-width="0.986822" stroke-miterlimit="1.5" stroke-linejoin="bevel"/>
<path d="M139.261 10.5225L141.09 9.46631" stroke="#3C3C3C" stroke-width="0.986822" stroke-miterlimit="1.5" stroke-linejoin="bevel"/>
<path d="M144.762 3.11238V1" stroke="#3C3C3C" stroke-width="0.986822" stroke-miterlimit="1.5" stroke-linejoin="bevel"/>
<path d="M144.762 13.6744V11.562" stroke="#3C3C3C" stroke-width="0.986822" stroke-miterlimit="1.5" stroke-linejoin="bevel"/>
<path d="M142.649 3.67847L141.593 1.84915" stroke="#3C3C3C" stroke-width="0.986822" stroke-miterlimit="1.5" stroke-linejoin="bevel"/>
<path d="M147.929 12.8249L146.873 10.9956" stroke="#3C3C3C" stroke-width="0.986822" stroke-miterlimit="1.5" stroke-linejoin="bevel"/>
<path d="M142.649 10.9956L141.593 12.8249" stroke="#3C3C3C" stroke-width="0.986822" stroke-miterlimit="1.5" stroke-linejoin="bevel"/>
<path d="M147.929 1.84912L146.873 3.67844" stroke="#3C3C3C" stroke-width="0.986822" stroke-miterlimit="1.5" stroke-linejoin="bevel"/>
<path d="M140.536 7.33691H138.424" stroke="#3C3C3C" stroke-width="0.986822" stroke-miterlimit="1.5" stroke-linejoin="bevel"/>
<path d="M151.099 7.33691H148.986" stroke="#3C3C3C" stroke-width="0.986822" stroke-miterlimit="1.5" stroke-linejoin="bevel"/>
<path d="M141.102 5.22465L139.273 4.16846" stroke="#3C3C3C" stroke-width="0.986822" stroke-miterlimit="1.5" stroke-linejoin="bevel"/>
<path d="M150.249 10.5054L148.42 9.44922" stroke="#3C3C3C" stroke-width="0.986822" stroke-miterlimit="1.5" stroke-linejoin="bevel"/>
<path d="M148.42 5.22465L150.249 4.16846" stroke="#3C3C3C" stroke-width="0.986822" stroke-miterlimit="1.5" stroke-linejoin="bevel"/>
<path d="M139.273 10.5054L141.102 9.44922" stroke="#3C3C3C" stroke-width="0.986822" stroke-miterlimit="1.5" stroke-linejoin="bevel"/>
<path d="M155.31 81.2871H117.304V119.31H155.31V81.2871Z" fill="#DFCBE1" stroke="#3C3C3C" stroke-width="0.986822" stroke-miterlimit="1.5"/>
<path d="M117.304 82.9775C118.238 82.9775 118.994 82.2209 118.994 81.2876C118.994 80.3543 118.238 79.5977 117.304 79.5977C116.371 79.5977 115.614 80.3543 115.614 81.2876C115.614 82.2209 116.371 82.9775 117.304 82.9775Z" fill="white" stroke="#3C3C3C" stroke-width="0.986822" stroke-miterlimit="1.5" stroke-linecap="square"/>
<path d="M155.31 82.9775C156.243 82.9775 157 82.2209 157 81.2876C157 80.3543 156.243 79.5977 155.31 79.5977C154.377 79.5977 153.62 80.3543 153.62 81.2876C153.62 82.2209 154.377 82.9775 155.31 82.9775Z" fill="white" stroke="#3C3C3C" stroke-width="0.986822" stroke-miterlimit="1.5" stroke-linecap="square"/>
<path d="M155.31 121.001C156.243 121.001 157 120.244 157 119.311C157 118.378 156.243 117.621 155.31 117.621C154.377 117.621 153.62 118.378 153.62 119.311C153.62 120.244 154.377 121.001 155.31 121.001Z" fill="white" stroke="#3C3C3C" stroke-width="0.986822" stroke-miterlimit="1.5" stroke-linecap="square"/>
<path d="M117.304 121C118.238 121 118.994 120.243 118.994 119.31C118.994 118.377 118.238 117.62 117.304 117.62C116.371 117.62 115.614 118.377 115.614 119.31C115.614 120.243 116.371 121 117.304 121Z" fill="white" stroke="#3C3C3C" stroke-width="0.986822" stroke-miterlimit="1.5" stroke-linecap="square"/>
<path d="M136.298 115.085C144.465 115.085 151.085 108.465 151.085 100.298C151.085 92.1319 144.465 85.5117 136.298 85.5117C128.132 85.5117 121.512 92.1319 121.512 100.298C121.512 108.465 128.132 115.085 136.298 115.085Z" fill="white" stroke="#3C3C3C" stroke-width="0.986822" stroke-miterlimit="1.5" stroke-linecap="square"/>
<path d="M127.781 102.411C127.781 102.411 127.786 102.411 127.781 102.411C129.805 105.073 132.957 106.632 136.298 106.632C139.64 106.632 142.792 105.069 144.811 102.411" stroke="#3C3C3C" stroke-width="0.986822" stroke-miterlimit="1.5"/>
<path fill-rule="evenodd" clip-rule="evenodd" d="M79.2649 53.8267V55.018C79.2649 57.8613 81.5674 60.1638 84.4107 60.1638H85.6021H84.4107C81.5674 60.1638 79.2649 62.4705 79.2649 65.3096V66.5009V65.3096C79.2649 62.4663 76.9624 60.1638 74.1192 60.1638H72.9278H74.1192C76.9624 60.1638 79.2649 57.8613 79.2649 55.018V53.8267Z" fill="white"/>
<path d="M79.2649 53.8267V55.018C79.2649 57.8613 81.5674 60.1638 84.4107 60.1638H85.6021H84.4107C81.5674 60.1638 79.2649 62.4705 79.2649 65.3096V66.5009V65.3096C79.2649 62.4663 76.9624 60.1638 74.1192 60.1638H72.9278H74.1192C76.9624 60.1638 79.2649 57.8613 79.2649 55.018V53.8267Z" stroke="#3C3C3C" stroke-width="0.986822" stroke-miterlimit="1.5" stroke-linejoin="bevel"/>
<path fill-rule="evenodd" clip-rule="evenodd" d="M43.0378 118.157L41.2422 101.596L54.6854 111.431L49.7889 112.06L52.6449 117.008L48.8891 119.179L46.0331 114.228L43.0378 118.157Z" fill="white"/>
<path d="M43.0378 118.157L41.2422 101.596L54.6854 111.431L49.7889 112.06L52.6449 117.008L48.8891 119.179L46.0331 114.228L43.0378 118.157Z" stroke="#3C3C3C" stroke-width="0.986822" stroke-miterlimit="1.5" stroke-linecap="round" stroke-linejoin="round"/>
</svg>
