<svg width="132" height="130" viewBox="0 0 132 130" fill="none" xmlns="http://www.w3.org/2000/svg">
<rect x="85.65" y="0.65" width="40.7" height="40.7" fill="#EDEDED" stroke="#3C3C3C" stroke-width="1.3"/>
<mask id="path-2-inside-1_11285:88994" fill="white">
<path fill-rule="evenodd" clip-rule="evenodd" d="M121.141 29.0002C121.201 28.4493 121.231 27.8897 121.231 27.323C121.231 18.7678 115.771 10.5005 105.741 10.5005C95.7099 10.5005 90.25 18.7678 90.25 27.323C90.25 27.8897 90.2804 28.4493 90.3397 29.0002H121.141Z"/>
</mask>
<path fill-rule="evenodd" clip-rule="evenodd" d="M121.141 29.0002C121.201 28.4493 121.231 27.8897 121.231 27.323C121.231 18.7678 115.771 10.5005 105.741 10.5005C95.7099 10.5005 90.25 18.7678 90.25 27.323C90.25 27.8897 90.2804 28.4493 90.3397 29.0002H121.141Z" fill="white"/>
<path d="M121.141 29.0002V30.3002C121.806 30.3002 122.363 29.7997 122.434 29.1394L121.141 29.0002ZM90.3397 29.0002L89.0472 29.1394C89.1183 29.7997 89.6756 30.3002 90.3397 30.3002V29.0002ZM119.931 27.323C119.931 27.8431 119.903 28.3563 119.849 28.861L122.434 29.1394C122.498 28.5423 122.531 27.9363 122.531 27.323H119.931ZM105.741 11.8005C110.363 11.8005 113.873 13.6904 116.25 16.5368C118.648 19.4091 119.931 23.3083 119.931 27.323H122.531C122.531 22.7825 121.084 18.2704 118.245 14.8703C115.384 11.4442 111.149 9.20049 105.741 9.20049V11.8005ZM91.55 27.323C91.55 23.3083 92.8332 19.4091 95.2316 16.5368C97.6084 13.6904 101.118 11.8005 105.741 11.8005V9.20049C100.332 9.20049 96.0967 11.4442 93.2359 14.8703C90.3968 18.2704 88.95 22.7825 88.95 27.323H91.55ZM91.6323 28.8611C91.5779 28.3563 91.55 27.8431 91.55 27.323H88.95C88.95 27.9363 88.9829 28.5423 89.0472 29.1394L91.6323 28.8611ZM90.3397 30.3002H121.141V27.7002H90.3397V30.3002Z" fill="#3C3C3C" mask="url(#path-2-inside-1_11285:88994)"/>
<path d="M106.06 24.2724L116.85 10.5" stroke="#3C3C3C" stroke-width="1.3"/>
<path d="M106.4 17.4986C106.4 17.9128 106.064 18.2486 105.65 18.2486C105.236 18.2486 104.9 17.9128 104.9 17.4986C104.9 17.0844 105.236 16.7486 105.65 16.7486C106.064 16.7486 106.4 17.0844 106.4 17.4986Z" fill="#3C3C3C" stroke="#3C3C3C" stroke-width="1.3" stroke-miterlimit="1.5" stroke-linecap="round" stroke-linejoin="round"/>
<path d="M99.4 23.0992C99.4 23.5134 99.0642 23.8492 98.65 23.8492C98.2358 23.8492 97.9 23.5134 97.9 23.0992C97.9 22.685 98.2358 22.3492 98.65 22.3492C99.0642 22.3492 99.4 22.685 99.4 23.0992Z" fill="#3C3C3C" stroke="#3C3C3C" stroke-width="1.3" stroke-miterlimit="1.5" stroke-linecap="round" stroke-linejoin="round"/>
<path d="M113.4 23.0992C113.4 23.5134 113.064 23.8492 112.65 23.8492C112.236 23.8492 111.9 23.5134 111.9 23.0992C111.9 22.685 112.236 22.3492 112.65 22.3492C113.064 22.3492 113.4 22.685 113.4 23.0992Z" fill="#3C3C3C" stroke="#3C3C3C" stroke-width="1.3" stroke-miterlimit="1.5" stroke-linecap="round" stroke-linejoin="round"/>
<rect x="0.65" y="8.65" width="43.7" height="43.7" fill="#EDEDED" stroke="#3C3C3C" stroke-width="1.3"/>
<path fill-rule="evenodd" clip-rule="evenodd" d="M15.4127 28.4536C15.4127 24.5176 18.6741 21.3269 22.6974 21.3269C26.7206 21.3269 29.982 24.5176 29.982 28.4536V35.1731C29.982 37.5961 32.9306 38.4615 32.9306 38.4615H12.2906C14.1985 38.4615 15.4127 36.7308 15.4127 35.1731V28.4536ZM25.8194 38.6346C25.8194 40.3552 24.4217 41.75 22.6974 41.75C20.9732 41.75 19.5754 40.3552 19.5754 38.6346H25.8194Z" fill="#FFC382"/>
<path d="M12.2906 38.4615C14.1985 38.4615 15.4127 36.7308 15.4127 35.1731C15.4127 32.9907 15.4127 31.1326 15.4127 28.4536C15.4127 24.5176 18.6741 21.3269 22.6974 21.3269C26.7206 21.3269 29.982 24.5176 29.982 28.4536C29.982 28.4536 29.982 32.75 29.982 35.1731C29.982 37.5961 32.9306 38.4615 32.9306 38.4615" stroke="#3C3C3C" stroke-width="1.3"/>
<path d="M25.8194 38.6345C25.8194 40.3551 24.4216 41.7499 22.6974 41.7499C20.9732 41.7499 19.5754 40.3551 19.5754 38.6345" stroke="#3C3C3C" stroke-width="1.3"/>
<path d="M11.25 38.4614L34.1447 38.4614" stroke="#3C3C3C" stroke-width="1.3"/>
<path d="M22.6974 21.3269L22.6974 19.25" stroke="#3C3C3C" stroke-width="1.3"/>
<rect x="13.65" y="80.65" width="48.7" height="48.7" fill="#FCE6F1" stroke="#3C3C3C" stroke-width="1.3"/>
<path d="M37.9997 107V118" stroke="#3C3C3C" stroke-width="1.3"/>
<path d="M23.9997 112L23.9997 118" stroke="#3C3C3C" stroke-width="1.3"/>
<path d="M30.9997 101L30.9997 118" stroke="#3C3C3C" stroke-width="1.3"/>
<path d="M44.9994 97.9998L44.9994 118" stroke="#3C3C3C" stroke-width="1.3"/>
<path d="M51.9994 105V118" stroke="#3C3C3C" stroke-width="1.3"/>
<rect x="37.35" y="31.35" width="67.3" height="67.3" rx="33.65" fill="#FFF3E6" stroke="#3C3C3C" stroke-width="1.3"/>
<path d="M61.5218 60.5283L62.128 60.7227L62.335 60.1207C63.6615 56.2624 67.3622 53.4977 71.6993 53.4977C77.1708 53.4977 81.6086 57.9045 81.6086 63.3136V63.9636H82.2586C85.0844 63.9636 87.3639 66.2312 87.3639 69.0181C87.3639 71.805 85.0844 74.0727 82.2586 74.0727H82.2584H82.2583H82.2582H82.258H82.2579H82.2577H82.2576H82.2575H82.2573H82.2572H82.257H82.2569H82.2568H82.2566H82.2565H82.2563H82.2562H82.256H82.2559H82.2557H82.2556H82.2555H82.2553H82.2552H82.255H82.2549H82.2547H82.2546H82.2544H82.2543H82.2541H82.254H82.2538H82.2537H82.2535H82.2533H82.2532H82.253H82.2529H82.2527H82.2526H82.2524H82.2523H82.2521H82.2519H82.2518H82.2516H82.2515H82.2513H82.2512H82.251H82.2508H82.2507H82.2505H82.2503H82.2502H82.25H82.2499H82.2497H82.2495H82.2494H82.2492H82.249H82.2489H82.2487H82.2485H82.2484H82.2482H82.248H82.2479H82.2477H82.2475H82.2474H82.2472H82.247H82.2469H82.2467H82.2465H82.2463H82.2462H82.246H82.2458H82.2457H82.2455H82.2453H82.2451H82.245H82.2448H82.2446H82.2444H82.2443H82.2441H82.2439H82.2437H82.2436H82.2434H82.2432H82.243H82.2428H82.2427H82.2425H82.2423H82.2421H82.2419H82.2418H82.2416H82.2414H82.2412H82.241H82.2409H82.2407H82.2405H82.2403H82.2401H82.2399H82.2398H82.2396H82.2394H82.2392H82.239H82.2388H82.2387H82.2385H82.2383H82.2381H82.2379H82.2377H82.2375H82.2374H82.2372H82.237H82.2368H82.2366H82.2364H82.2362H82.236H82.2358H82.2357H82.2355H82.2353H82.2351H82.2349H82.2347H82.2345H82.2343H82.2341H82.2339H82.2337H82.2336H82.2334H82.2332H82.233H82.2328H82.2326H82.2324H82.2322H82.232H82.2318H82.2316H82.2314H82.2312H82.231H82.2308H82.2307H82.2305H82.2303H82.2301H82.2299H82.2297H82.2295H82.2293H82.2291H82.2289H82.2287H82.2285H82.2283H82.2281H82.2279H82.2277H82.2275H82.2273H82.2271H82.2269H82.2267H82.2265H82.2263H82.2261H82.2259H82.2257H82.2255H82.2253H82.2251H82.2249H82.2247H82.2245H82.2243H82.2241H82.2239H82.2237H82.2235H82.2233H82.2231H82.2229H82.2227H82.2225H82.2223H82.2221H82.2219H82.2217H82.2215H82.2213H82.2211H82.2209H82.2207H82.2205H82.2203H82.2201H82.2199H82.2197H82.2195H82.2193H82.2191H82.2189H82.2187H82.2185H82.2183H82.2181H82.2179H82.2177H82.2175H82.2173H82.217H82.2168H82.2166H82.2164H82.2162H82.216H82.2158H82.2156H82.2154H82.2152H82.215H82.2148H82.2146H82.2144H82.2142H82.214H82.2138H82.2136H82.2134H82.2132H82.213H82.2128H82.2126H82.2124H82.2122H82.212H82.2117H82.2115H82.2113H82.2111H82.2109H82.2107H82.2105H82.2103H82.2101H82.2099H82.2097H82.2095H82.2093H82.2091H82.2089H82.2087H82.2085H82.2083H82.2081H82.2079H82.2077H82.2075H82.2073H82.2071H82.2069H82.2067H82.2065H82.2062H82.206H82.2058H82.2056H82.2054H82.2052H82.205H82.2048H82.2046H82.2044H82.2042H82.204H82.2038H82.2036H82.2034H82.2032H82.203H82.2028H82.2026H82.2024H82.2022H82.202H82.2018H82.2016H82.2014H82.2012H82.201H82.2008H82.2006H82.2004H82.2002H82.2H82.1998H82.1996H82.1994H82.1992H82.199H82.1988H82.1986H82.1984H82.1982H82.198H82.1978H82.1976H82.1974H82.1972H82.197H82.1968H82.1966H82.1964H82.1962H82.196H82.1958H82.1956H82.1954H82.1952H82.195H82.1948H82.1946H82.1944H82.1942H82.194H82.1939H82.1937H82.1935H82.1933H82.1931H82.1929H82.1927H82.1925H82.1923H82.1921H82.1919H82.1917H82.1915H82.1913H82.1911H82.1909H82.1908H82.1906H82.1904H82.1902H82.19H82.1898H82.1896H82.1894H82.1892H82.189H82.1888H82.1887H82.1885H82.1883H82.1881H82.1879H82.1877H82.1875H82.1873H82.1871H82.187H82.1868H82.1866H82.1864H82.1862H82.186H82.1858H82.1857H82.1855H82.1853H82.1851H82.1849H82.1847H82.1845H82.1844H82.1842H82.184H82.1838H82.1836H82.1835H82.1833H82.1831H82.1829H82.1827H82.1825H82.1824H82.1822H82.182H82.1818H82.1816H82.1815H82.1813H82.1811H82.1809H82.1808H82.1806H82.1804H82.1802H82.1801H82.1799H82.1797H82.1795H82.1794H82.1792H82.179H82.1788H82.1787H82.1785H82.1783H82.1781H82.178H82.1778H82.1776H82.1775H82.1773H82.1771H82.1769H82.1768H82.1766H82.1764H82.1763H82.1761H82.1759H82.1758H82.1756H82.1754H82.1753H82.1751H82.1749H82.1748H82.1746H82.1745H82.1743H82.1741H82.174H82.1738H82.1736H82.1735H82.1733H82.1732H82.173H82.1728H82.1727H82.1725H82.1724H82.1722H82.1721H82.1719H82.1717H82.1716H82.1714H82.1713H82.1711H82.171H82.1708H82.1707H82.1705H82.1704H82.1702H82.17H82.1699H82.1697H82.1696H82.1695H82.1693H82.1692H82.169H82.1689H82.1687H82.1686H82.1684H82.1683H82.1681H82.168H82.1678H82.1677H82.1676H82.1674H82.1673H82.1671H82.167H82.1668H82.1667H82.1666H82.1664H82.1663H82.1662H82.166H82.1659H82.1657H82.1656H82.1655H82.1653H82.1652H82.1651H82.1649H82.1648H82.1647H82.1645H82.1644H82.1642H82.1641H82.164H82.1638H82.1637H82.1636H82.1634H82.1633H82.1632H82.163H82.1629H82.1628H82.1626H82.1625H82.1623H82.1622H82.1621H82.1619H82.1618H82.1617H82.1615H82.1614H82.1613H82.1611H82.161H82.1609H82.1607H82.1606H82.1604H82.1603H82.1602H82.16H82.1599H82.1598H82.1596H82.1595H82.1594H82.1592H82.1591H82.159H82.1588H82.1587H82.1586H82.1584H82.1583H82.1582H82.158H82.1579H82.1578H82.1576H82.1575H82.1574H82.1572H82.1571H82.1569H82.1568H82.1567H82.1565H82.1564H82.1563H82.1561H82.156H82.1559H82.1557H82.1556H82.1555H82.1553H82.1552H82.1551H82.155H82.1548H82.1547H82.1546H82.1544H82.1543H82.1542H82.154H82.1539H82.1538H82.1536H82.1535H82.1534H82.1532H82.1531H82.153H82.1528H82.1527H82.1526H82.1524H82.1523H82.1522H82.1521H82.1519H82.1518H82.1517H82.1515H82.1514H82.1513H82.1511H82.151H82.1509H82.1508H82.1506H82.1505H82.1504H82.1502H82.1501H82.15H82.1499H82.1497H82.1496H82.1495H82.1493H82.1492H82.1491H82.149H82.1488H82.1487H82.1486H82.1484H82.1483H82.1482H82.1481H82.1479H82.1478H82.1477H82.1476H82.1474H82.1473H82.1472H82.1471H82.1469H82.1468H82.1467H82.1466H82.1464H82.1463H82.1462H82.1461H82.1459H82.1458H82.1457H82.1456H82.1454H82.1453H82.1452H82.1451H82.1449H82.1448H82.1447H82.1446H82.1444H82.1443H82.1442H82.1441H82.144H82.1438H82.1437H82.1436H82.1435H82.1434H82.1432H82.1431H82.143H82.1429H82.1428H82.1426H82.1425H82.1424H82.1423H82.1422H82.142H82.1419H82.1418H82.1417H82.1416H82.1414H82.1413H82.1412H82.1411H82.141H82.1409H82.1407H82.1406H82.1405H82.1404H82.1403H82.1402H82.14H82.1399H82.1398H82.1397H82.1396H82.1395H82.1394H82.1392H82.1391H82.139H82.1389H82.1388H82.1387H82.1386H82.1385H82.1383H82.1382H82.1381H82.138H82.1379H82.1378H82.1377H82.1376H82.1374H82.1373H82.1372H82.1371H82.137H82.1369H82.1368H82.1367H82.1366H82.1365H82.1364H82.1362H82.1361H82.136H82.1359H82.1358H82.1357H82.1356H82.1355H82.1354H82.1353H82.1352H82.1351H82.135H82.1349H82.1348H82.1347H82.1346H82.1345H82.1343H82.1342H82.1341H82.134H82.1339H82.1338H82.1337H82.1336H82.1335H82.1334H82.1333H82.1332H82.1331H82.133H82.1329H82.1328H82.1327H82.1326H82.1325H82.1324H82.1323H82.1322H82.1321H82.132H82.1319H82.1319H82.1318H82.1317H82.1316H82.1315H82.1314H82.1313H82.1312H82.1311H82.131H82.1309H82.1308H82.1307H82.1306H82.1305H82.1304H82.1303H82.1303H82.1302H82.1301H82.13H82.1299H82.1298H82.1297H82.1296H82.1295H82.1294H82.1294H82.1293H82.1292H82.1291H82.129H82.1289H82.1288H82.1287H82.1287H82.1286H82.1285H82.1284H82.1283H82.1282H82.1281H82.1281H82.128H82.1279H82.1278H82.1277H82.1277H82.1276H82.1275H82.1274H82.1273H82.1272H82.1272H82.1271H82.127H82.1269H82.1269H82.1268H82.1267H82.1266H82.1265H82.1265H82.1264H82.1263H82.1262H82.1262H82.1261H82.126H82.1259H82.1259H82.1258H82.1257H82.1256H82.1256H82.1255H82.1254H82.1254H82.1253H82.1252H82.1251H82.1251H82.125H82.1249H82.1249H82.1248H82.1247H82.1247H82.1246H82.1245H82.1245H82.1244H82.1243H82.1243H82.1242H82.1241H82.1241H82.124H82.1239H82.1239H82.1238H82.1237H82.1237H82.1236H82.1236H82.1235H82.1234H82.1234H82.1233H82.1233H82.1232H82.1231H82.1231H82.123H82.123H82.1229H82.1229H82.1228H82.1227H82.1227H82.1226H82.1226H82.1225H82.1225H82.1224H82.1224H82.1223H82.1223H82.1222H82.1222H82.1221H82.1221H82.122H82.122H82.1219H82.1219H82.1218H82.1218H82.1217H82.1217H82.1216H82.1216H82.1215H82.1215H82.1214H82.1214H82.1214H82.1213H82.1213H82.1212H82.1212H82.1211H82.1211H82.1211H82.121H82.121H82.1209H82.1209H82.1209H82.1208H82.1208H82.1208H82.1207H82.1207H82.1206H82.1206H82.1206H82.1205H82.1205H82.1205H82.1204H82.1204H82.1204H82.1203H82.1203H82.1203H82.1203H82.1202H82.1202H82.1202H82.1201H82.1201H82.1201H82.1201H82.12H82.12H82.12H82.12H82.1199H82.1199H82.1199H82.1199H82.1198H82.1198H82.1198H82.1198H82.1197H82.1197H82.1197H82.1197H82.1197H82.1197H82.1196H82.1196H82.1196H82.1196H82.1196H82.1196H82.1195H82.1195H82.1195H82.1195H82.1194H82.1194H82.1194H82.1194H82.1194H82.1194H82.1193H59.2372C55.3438 74.0727 52.2056 70.9539 52.2056 67.109C52.2056 63.264 55.3438 60.1453 59.2372 60.1453C60.0148 60.1453 60.7825 60.2912 61.5218 60.5283Z" fill="white" stroke="#3C3C3C" stroke-width="1.3" stroke-miterlimit="1.5" stroke-linecap="square"/>
<rect x="92.65" y="77.65" width="38.7" height="38.7" fill="#EDEBF3" stroke="#3C3C3C" stroke-width="1.3"/>
<path d="M112.872 108.417C112.434 108.794 112.068 109.088 111.81 109.288C111.768 109.25 111.722 109.211 111.675 109.169C110.735 108.346 108.907 106.744 107.091 104.534C104.785 101.726 102.666 98.1131 102.666 94.2756C102.666 89.2465 106.743 85.1695 111.772 85.1695C116.801 85.1695 120.878 89.2465 120.878 94.2756C120.878 98.5169 118.558 102.332 116.156 105.133C114.963 106.525 113.769 107.645 112.872 108.417Z" fill="white" stroke="#3C3C3C" stroke-width="1.3" stroke-miterlimit="1.5" stroke-linecap="round" stroke-linejoin="round"/>
<path d="M115.43 94.2765C115.43 96.297 113.792 97.935 111.772 97.935C109.751 97.935 108.113 96.297 108.113 94.2765C108.113 92.2559 109.751 90.6179 111.772 90.6179C113.792 90.6179 115.43 92.2559 115.43 94.2765Z" fill="#76B82A"/>
<path d="M118.979 12.1696L114.682 8.80425L119.49 7.09163L118.979 12.1696Z" fill="#3C3C3C"/>
</svg>
