<svg width="48" height="48" viewBox="0 0 48 48" fill="none" xmlns="http://www.w3.org/2000/svg">
<path d="M9 6C14.1214 7.38604 17.1118 12.818 15.6847 18.1439C16.4968 16.8811 17.9929 16.2801 19.3962 16.6561C20.7995 17.0321 21.7956 18.2974 21.8666 19.8004" stroke="#3C3C3C" stroke-miterlimit="1.5" stroke-linecap="square"/>
<path d="M8.44829 6.69067C8.98175 6.83361 9.53009 6.51703 9.67303 5.98356C9.81597 5.4501 9.49939 4.90176 8.96593 4.75882C8.43246 4.61588 7.88412 4.93246 7.74118 5.46593C7.59824 5.99939 7.91482 6.54773 8.44829 6.69067Z" fill="white" stroke="#3C3C3C" stroke-miterlimit="1.5" stroke-linecap="square"/>
<path d="M31 6C25.8786 7.38604 22.8882 12.818 24.3153 18.1439C23.5032 16.8811 22.0071 16.2801 20.6038 16.6561C19.2005 17.0321 18.2044 18.2974 18.1334 19.8004" stroke="#3C3C3C" stroke-miterlimit="1.5" stroke-linecap="square"/>
<path d="M31.5517 6.69067C31.0182 6.83361 30.4699 6.51703 30.327 5.98356C30.184 5.4501 30.5006 4.90176 31.0341 4.75882C31.5675 4.61588 32.1159 4.93246 32.2588 5.46593C32.4018 5.99939 32.0852 6.54773 31.5517 6.69067Z" fill="white" stroke="#3C3C3C" stroke-miterlimit="1.5" stroke-linecap="square"/>
<path d="M36.5 27.5C36.5 36.3366 29.3366 43.5 20.5 43.5C11.6634 43.5 4.5 36.3366 4.5 27.5C4.5 18.6634 11.6634 11.5 20.5 11.5C29.3366 11.5 36.5 18.6634 36.5 27.5Z" fill="#FCE6F1" stroke="#3C3C3C" stroke-miterlimit="1.5" stroke-linecap="square"/>
<path d="M30 32C27.7417 28.8468 24.2246 27 20.5 27C16.7707 27 13.2536 28.8518 11 32" stroke="#3C3C3C" stroke-miterlimit="1.5" stroke-linecap="square"/>
<path d="M33.9915 28.5C33.5023 28.5 32.9102 28.2708 32.2309 27.8048C31.5593 27.3442 30.8511 26.6858 30.1402 25.9083C26.5125 21.9242 24.5 16.731 24.5 11.339V11.3312V11.3234V11.3156V11.3079V11.3001V11.2923V11.2846V11.2769V11.2691V11.2614V11.2537V11.246V11.2383V11.2306V11.2229V11.2152V11.2075V11.1999V11.1922V11.1846V11.1769V11.1693V11.1617V11.1541V11.1465V11.1389V11.1313V11.1237V11.1161V11.1086V11.101V11.0935V11.0859V11.0784V11.0709V11.0634V11.0558V11.0483V11.0409V11.0334V11.0259V11.0184V11.011V11.0035V10.9961V10.9887V10.9813V10.9738V10.9664V10.959V10.9517V10.9443V10.9369V10.9296V10.9222V10.9149V10.9075V10.9002V10.8929V10.8856V10.8783V10.871V10.8638V10.8565V10.8492V10.842V10.8347V10.8275V10.8203V10.8131V10.8059V10.7987V10.7915V10.7843V10.7772V10.77V10.7629V10.7558V10.7486V10.7415V10.7344V10.7273V10.7202V10.7132V10.7061V10.699V10.692V10.685V10.6779V10.6709V10.6639V10.6569V10.65V10.643V10.636V10.6291V10.6221V10.6152V10.6083V10.6014V10.5945V10.5876V10.5807V10.5738V10.567V10.5601V10.5533V10.5465V10.5396V10.5328V10.526V10.5193V10.5125V10.5057V10.499V10.4922V10.4855V10.4788V10.4721V10.4654V10.4587V10.452V10.4454V10.4387V10.4321V10.4254V10.4188V10.4122V10.4056V10.399V10.3925V10.3859V10.3794V10.3728V10.3663V10.3598V10.3533V10.3468V10.3403V10.3338V10.3274V10.3209V10.3145V10.3081V10.3017V10.2953V10.2889V10.2825V10.2761V10.2698V10.2634V10.2571V10.2508V10.2445V10.2382V10.2319V10.2257V10.2194V10.2132V10.2069V10.2007V10.1945V10.1883V10.1821V10.176V10.1698V10.1637V10.1575V10.1514V10.1453V10.1392V10.1331V10.1271V10.121V10.115V10.1089V10.1029V10.0969V10.0909V10.085V10.079V10.073V10.0671V10.0612V10.0553V10.0494V10.0435V10.0376V10.0317V10.0259V10.02V10.0142V10.0084V10.0026V9.99684V9.99107V9.98531V9.97957V9.97384V9.96813V9.96243V9.95674V9.95107V9.94541V9.93976V9.93412V9.92851V9.9229V9.91731V9.91173V9.90616V9.90061V9.89508V9.88955V9.88404V9.87855V9.87307V9.8676V9.86215V9.85671V9.85129V9.84587V9.84048V9.8351V9.82973V9.82437V9.81903V9.81371V9.8084V9.8031V9.79782V9.79255V9.7873V9.78206V9.77684V9.77163V9.76644V9.76126V9.75609V9.75094V9.7458V9.74068V9.73558V9.73048V9.72541V9.72035V9.7153V9.71027V9.70525V9.70025V9.69526V9.69029V9.68533V9.68039V9.67547V9.67055V9.66566V9.66078V9.65591V9.65106V9.64623V9.64141V9.6366V9.63182V9.62704V9.62229V9.61754V9.61282V9.60811V9.60341V9.59873V9.59407V9.58942V9.58479V9.58017V9.57557V9.57099V9.56642V9.56186V9.55733V9.5528V9.5483V9.54381V9.53934V9.53488V9.53044V9.52601V9.52161V9.51721V9.51284V9.50848V9.50413V9.5H43.5V9.50146V9.50578V9.51013V9.51449V9.51887V9.52326V9.52767V9.5321V9.53654V9.541V9.54547V9.54996V9.55447V9.55899V9.56353V9.56809V9.57266V9.57725V9.58185V9.58647V9.5911V9.59575V9.60042V9.6051V9.6098V9.61451V9.61924V9.62398V9.62874V9.63352V9.63831V9.64311V9.64794V9.65277V9.65763V9.66249V9.66738V9.67228V9.67719V9.68212V9.68706V9.69202V9.697V9.70199V9.70699V9.71201V9.71705V9.7221V9.72716V9.73225V9.73734V9.74245V9.74758V9.75272V9.75787V9.76304V9.76822V9.77342V9.77864V9.78387V9.78911V9.79437V9.79964V9.80493V9.81023V9.81554V9.82087V9.82622V9.83158V9.83695V9.84234V9.84774V9.85316V9.85859V9.86403V9.86949V9.87496V9.88045V9.88595V9.89147V9.897V9.90254V9.9081V9.91367V9.91926V9.92486V9.93047V9.9361V9.94174V9.94739V9.95306V9.95875V9.96444V9.97015V9.97587V9.98161V9.98736V9.99313V9.9989V10.0047V10.0105V10.0163V10.0221V10.028V10.0339V10.0397V10.0456V10.0515V10.0574V10.0633V10.0693V10.0752V10.0812V10.0872V10.0932V10.0992V10.1052V10.1112V10.1172V10.1233V10.1294V10.1355V10.1415V10.1477V10.1538V10.1599V10.166V10.1722V10.1784V10.1846V10.1907V10.197V10.2032V10.2094V10.2157V10.2219V10.2282V10.2345V10.2408V10.2471V10.2534V10.2597V10.2661V10.2724V10.2788V10.2852V10.2916V10.298V10.3044V10.3108V10.3172V10.3237V10.3302V10.3366V10.3431V10.3496V10.3561V10.3627V10.3692V10.3757V10.3823V10.3889V10.3954V10.402V10.4086V10.4153V10.4219V10.4285V10.4352V10.4418V10.4485V10.4552V10.4619V10.4686V10.4753V10.482V10.4888V10.4955V10.5023V10.5091V10.5159V10.5227V10.5295V10.5363V10.5431V10.55V10.5568V10.5637V10.5705V10.5774V10.5843V10.5912V10.5981V10.6051V10.612V10.619V10.6259V10.6329V10.6399V10.6469V10.6539V10.6609V10.6679V10.6749V10.682V10.689V10.6961V10.7032V10.7103V10.7173V10.7245V10.7316V10.7387V10.7458V10.753V10.7601V10.7673V10.7745V10.7817V10.7889V10.7961V10.8033V10.8105V10.8177V10.825V10.8322V10.8395V10.8468V10.8541V10.8613V10.8686V10.876V10.8833V10.8906V10.898V10.9053V10.9127V10.92V10.9274V10.9348V10.9422V10.9496V10.957V10.9644V10.9719V10.9793V10.9868V10.9942V11.0017V11.0092V11.0167V11.0242V11.0317V11.0392V11.0467V11.0543V11.0618V11.0694V11.0769V11.0845V11.0921V11.0997V11.1072V11.1149V11.1225V11.1301V11.1377V11.1454V11.153V11.1607V11.1683V11.176V11.1837V11.1914V11.1991V11.2068V11.2145V11.2222V11.2299V11.2377V11.2454V11.2532V11.2609V11.2687V11.2765V11.2843V11.2921V11.2999V11.3077V11.3155V11.3233V11.3311V11.339C43.5 16.7804 41.4546 22.0146 37.7612 26.0152C37.0587 26.7633 36.3657 27.3942 35.7103 27.8351C35.0475 28.281 34.471 28.5 33.9915 28.5Z" fill="#76B82A" stroke="#3C3C3C" stroke-miterlimit="1.5" stroke-linecap="round" stroke-linejoin="round"/>
<path d="M30 17.2095L33.1169 20L39 14" stroke="#3C3C3C" stroke-miterlimit="1.5"/>
</svg>
