<svg width="48" height="48" viewBox="0 0 48 48" fill="none" xmlns="http://www.w3.org/2000/svg">
<path d="M35.5 14.3933L35.5 41.5L6.5 41.5L6.50001 4.5L25.977 4.5L35.5 14.3933Z" fill="#F7E7EF" stroke="#3C3C3C" stroke-miterlimit="1.5" stroke-linecap="square"/>
<path d="M11 20H25" stroke="#3C3C3C"/>
<path d="M11 26H21" stroke="#3C3C3C"/>
<path d="M11 32H25" stroke="#3C3C3C"/>
<path d="M26 5V15H36" stroke="#3C3C3C"/>
<path d="M42.5 35C42.5 39.6944 38.6944 43.5 34 43.5C29.3056 43.5 25.5 39.6944 25.5 35C25.5 30.3056 29.3056 26.5 34 26.5C38.6944 26.5 42.5 30.3056 42.5 35Z" fill="#F0001E" stroke="#3C3C3C" stroke-miterlimit="1.5" stroke-linecap="square"/>
<path d="M38.5 38C37.4305 36.7387 35.7649 36 33.9989 36C32.2328 36 30.5672 36.7407 29.5 38" stroke="#3C3C3C" stroke-miterlimit="1.5"/>
</svg>
