<svg width="130" height="24" viewBox="0 0 130 24" fill="none" xmlns="http://www.w3.org/2000/svg">
<path fill-rule="evenodd" clip-rule="evenodd" d="M61.6094 17.5005C63.2692 17.5005 64.6144 18.8437 64.6144 20.5005C64.6144 22.1577 63.2692 23.5006 61.6094 23.5006C59.9492 23.5006 58.6039 22.1577 58.6039 20.5005C58.6039 18.8437 59.9492 17.5005 61.6094 17.5005Z" fill="#76B82A"/>
<path fill-rule="evenodd" clip-rule="evenodd" d="M76.1426 20.0006C73.6528 20.0006 71.6345 17.9859 71.6345 15.5005C71.6345 13.0151 73.6528 11.0004 76.1426 11.0004C77.4303 11.0004 78.5882 11.5418 79.4097 12.4057L81.8891 9.93078C80.4327 8.43385 78.3981 7.50046 76.1426 7.50046C71.7165 7.50046 68.1283 11.0823 68.1283 15.5005C68.1283 19.9187 71.7165 23.5005 76.1426 23.5005C78.3981 23.5005 80.4327 22.5671 81.8891 21.0702L79.4097 18.5956C78.5882 19.4592 77.4303 20.0006 76.1426 20.0006ZM85.152 15.5005C85.152 11.0823 88.7403 7.50046 93.1664 7.50046C97.5925 7.50046 101.181 11.0823 101.181 15.5005C101.181 19.9187 97.5925 23.5005 93.1664 23.5005C88.7403 23.5005 85.152 19.9187 85.152 15.5005ZM88.6583 15.5006C88.6583 17.986 90.6765 20.0006 93.1664 20.0006C95.6563 20.0006 97.6746 17.986 97.6746 15.5006C97.6746 13.0151 95.6563 11.0005 93.1664 11.0005C90.6765 11.0005 88.6583 13.0151 88.6583 15.5006ZM125.725 23.5005H129.231V14.5007C129.231 10.6348 126.091 7.50046 122.219 7.50046C120.124 7.50046 118.244 8.41717 116.959 9.87024C115.674 8.41717 113.794 7.50046 111.7 7.50046C107.827 7.50046 104.687 10.6348 104.687 14.5007V15.001V23.5005H108.193V14.5007L108.195 14.38C108.259 12.5032 109.803 11.0004 111.7 11.0004C113.636 11.0004 115.206 12.568 115.206 14.5007V23.5005H118.712V14.5007L118.714 14.38C118.778 12.5032 120.322 11.0004 122.219 11.0004C124.155 11.0004 125.725 12.568 125.725 14.5007V23.5005ZM55.0984 15.5006C55.0984 11.0824 51.5101 7.50053 47.084 7.50053C42.6579 7.50053 39.0697 11.0824 39.0697 15.5006C39.0697 19.9188 42.6579 23.5006 47.084 23.5006C50.3511 23.5006 53.1614 21.5492 54.4094 18.7506L50.2018 18.751C49.3924 19.5248 48.2936 20.0007 47.084 20.0007C45.0289 20.0007 43.2952 18.6279 42.7524 16.751H55.0012C55.0649 16.3435 55.0984 15.9259 55.0984 15.5006ZM35.562 15.343C35.478 10.9974 31.9228 7.50053 27.5492 7.50053C23.1227 7.50053 19.5349 11.0824 19.5349 15.5006V23.5006H23.0411V22.1158C23.0411 22.1158 23.0411 22.116 23.0411 22.1161C23.0412 22.1162 23.0413 22.1162 23.0414 22.1162L23.0411 15.5006L23.043 15.3678C23.1134 12.9441 25.1036 11.0005 27.5492 11.0005C30.0387 11.0005 32.0573 13.0151 32.0573 15.5006V22.1155H32.0577L32.0573 23.5006H35.5635V15.5006L35.562 15.343ZM16.0287 15.5006C16.0287 11.0824 12.4404 7.50054 8.01433 7.50054C3.58784 7.50054 0 11.0824 0 15.5006C0 19.9188 3.58784 23.5006 8.01433 23.5006C12.4404 23.5006 16.0287 19.9188 16.0287 15.5006ZM3.50631 15.5006C3.50631 13.0152 5.52457 11.0005 8.01444 11.0005C10.5039 11.0005 12.5222 13.0152 12.5222 15.5006C12.5222 17.9861 10.5039 20.0007 8.01444 20.0007C5.52457 20.0007 3.50631 17.9861 3.50631 15.5006ZM42.8326 14.001C43.4512 12.253 45.1211 11.0005 47.0842 11.0005C49.0472 11.0005 50.7171 12.253 51.3357 14.001H42.8326Z" fill="#3C3C3C"/>
</svg>
